%TF.GenerationSoftware,KiCad,Pcbnew,5.1.6-c6e7f7d~87~ubuntu18.04.1*%
%TF.CreationDate,2020-10-02T11:27:22-04:00*%
%TF.ProjectId,avrisp-pogopin-adapter,61767269-7370-42d7-906f-676f70696e2d,rev?*%
%TF.SameCoordinates,Original*%
%TF.FileFunction,Legend,Top*%
%TF.FilePolarity,Positive*%
%FSLAX46Y46*%
G04 Gerber Fmt 4.6, Leading zero omitted, Abs format (unit mm)*
G04 Created by KiCad (PCBNEW 5.1.6-c6e7f7d~87~ubuntu18.04.1) date 2020-10-02 11:27:22*
%MOMM*%
%LPD*%
G01*
G04 APERTURE LIST*
%ADD10C,0.250000*%
%ADD11C,0.120000*%
%ADD12C,0.350000*%
%ADD13C,0.150000*%
%ADD14C,0.125000*%
G04 APERTURE END LIST*
D10*
X119505000Y-86360000D02*
G75*
G03*
X119505000Y-86360000I-125000J0D01*
G01*
X120243629Y-70592920D02*
G75*
G03*
X120243629Y-70592920I-125000J0D01*
G01*
D11*
X135890000Y-77470000D02*
X135190000Y-78040000D01*
X136590000Y-78040000D02*
X135890000Y-77470000D01*
X136590000Y-78040000D02*
X137160000Y-77470000D01*
X137160000Y-78740000D02*
X136590000Y-78040000D01*
X136590000Y-79440000D02*
X137160000Y-78740000D01*
X136590000Y-79440000D02*
X137160000Y-80010000D01*
X135890000Y-80010000D02*
X136590000Y-79440000D01*
X135190000Y-79440000D02*
X135890000Y-80010000D01*
X135190000Y-79440000D02*
X134620000Y-80010000D01*
X134620000Y-78740000D02*
X135190000Y-79440000D01*
X135190000Y-78040000D02*
X134620000Y-78740000D01*
X134620000Y-77470000D02*
X135190000Y-78040000D01*
X134620000Y-80010000D02*
X134620000Y-77470000D01*
X137160000Y-80010000D02*
X134620000Y-80010000D01*
X137160000Y-77470000D02*
X137160000Y-80010000D01*
X134620000Y-77470000D02*
X137160000Y-77470000D01*
D12*
X148566442Y-78740000D02*
G75*
G03*
X148566442Y-78740000I-1246442J0D01*
G01*
D13*
X128436666Y-92352380D02*
X128436666Y-91876190D01*
X128722380Y-92447619D02*
X127722380Y-92114285D01*
X128722380Y-91780952D01*
X128055714Y-91590476D02*
X128055714Y-91209523D01*
X127722380Y-91447619D02*
X128579523Y-91447619D01*
X128674761Y-91400000D01*
X128722380Y-91304761D01*
X128722380Y-91209523D01*
X128722380Y-90876190D02*
X128055714Y-90876190D01*
X128150952Y-90876190D02*
X128103333Y-90828571D01*
X128055714Y-90733333D01*
X128055714Y-90590476D01*
X128103333Y-90495238D01*
X128198571Y-90447619D01*
X128722380Y-90447619D01*
X128198571Y-90447619D02*
X128103333Y-90400000D01*
X128055714Y-90304761D01*
X128055714Y-90161904D01*
X128103333Y-90066666D01*
X128198571Y-90019047D01*
X128722380Y-90019047D01*
X128674761Y-89161904D02*
X128722380Y-89257142D01*
X128722380Y-89447619D01*
X128674761Y-89542857D01*
X128579523Y-89590476D01*
X128198571Y-89590476D01*
X128103333Y-89542857D01*
X128055714Y-89447619D01*
X128055714Y-89257142D01*
X128103333Y-89161904D01*
X128198571Y-89114285D01*
X128293809Y-89114285D01*
X128389047Y-89590476D01*
X128722380Y-88542857D02*
X128674761Y-88638095D01*
X128579523Y-88685714D01*
X127722380Y-88685714D01*
X128722380Y-87400000D02*
X127722380Y-87400000D01*
X128627142Y-86352380D02*
X128674761Y-86400000D01*
X128722380Y-86542857D01*
X128722380Y-86638095D01*
X128674761Y-86780952D01*
X128579523Y-86876190D01*
X128484285Y-86923809D01*
X128293809Y-86971428D01*
X128150952Y-86971428D01*
X127960476Y-86923809D01*
X127865238Y-86876190D01*
X127770000Y-86780952D01*
X127722380Y-86638095D01*
X127722380Y-86542857D01*
X127770000Y-86400000D01*
X127817619Y-86352380D01*
X128198571Y-85923809D02*
X128198571Y-85590476D01*
X128722380Y-85447619D02*
X128722380Y-85923809D01*
X127722380Y-85923809D01*
X127722380Y-85447619D01*
X128722380Y-78787142D02*
X128198571Y-78787142D01*
X128103333Y-78834761D01*
X128055714Y-78930000D01*
X128055714Y-79120476D01*
X128103333Y-79215714D01*
X128674761Y-78787142D02*
X128722380Y-78882380D01*
X128722380Y-79120476D01*
X128674761Y-79215714D01*
X128579523Y-79263333D01*
X128484285Y-79263333D01*
X128389047Y-79215714D01*
X128341428Y-79120476D01*
X128341428Y-78882380D01*
X128293809Y-78787142D01*
X128055714Y-78406190D02*
X128722380Y-78168095D01*
X128055714Y-77930000D01*
X128722380Y-77549047D02*
X128055714Y-77549047D01*
X128246190Y-77549047D02*
X128150952Y-77501428D01*
X128103333Y-77453809D01*
X128055714Y-77358571D01*
X128055714Y-77263333D01*
X128722380Y-76930000D02*
X127722380Y-76930000D01*
X128674761Y-76501428D02*
X128722380Y-76358571D01*
X128722380Y-76120476D01*
X128674761Y-76025238D01*
X128627142Y-75977619D01*
X128531904Y-75930000D01*
X128436666Y-75930000D01*
X128341428Y-75977619D01*
X128293809Y-76025238D01*
X128246190Y-76120476D01*
X128198571Y-76310952D01*
X128150952Y-76406190D01*
X128103333Y-76453809D01*
X128008095Y-76501428D01*
X127912857Y-76501428D01*
X127817619Y-76453809D01*
X127770000Y-76406190D01*
X127722380Y-76310952D01*
X127722380Y-76072857D01*
X127770000Y-75930000D01*
X128722380Y-75501428D02*
X127722380Y-75501428D01*
X127722380Y-75120476D01*
X127770000Y-75025238D01*
X127817619Y-74977619D01*
X127912857Y-74930000D01*
X128055714Y-74930000D01*
X128150952Y-74977619D01*
X128198571Y-75025238D01*
X128246190Y-75120476D01*
X128246190Y-75501428D01*
X128341428Y-74501428D02*
X128341428Y-73739523D01*
X128722380Y-73263333D02*
X127722380Y-73263333D01*
X128436666Y-72930000D01*
X127722380Y-72596666D01*
X128722380Y-72596666D01*
X128722380Y-72120476D02*
X127722380Y-72120476D01*
X128722380Y-71549047D02*
X128150952Y-71977619D01*
X127722380Y-71549047D02*
X128293809Y-72120476D01*
X128722380Y-71120476D02*
X127722380Y-71120476D01*
X128722380Y-70644285D02*
X127722380Y-70644285D01*
D14*
X152163630Y-83195000D02*
X152044583Y-83135476D01*
X151866011Y-83135476D01*
X151687440Y-83195000D01*
X151568392Y-83314047D01*
X151508869Y-83433095D01*
X151449345Y-83671190D01*
X151449345Y-83849761D01*
X151508869Y-84087857D01*
X151568392Y-84206904D01*
X151687440Y-84325952D01*
X151866011Y-84385476D01*
X151985059Y-84385476D01*
X152163630Y-84325952D01*
X152223154Y-84266428D01*
X152223154Y-83849761D01*
X151985059Y-83849761D01*
X152758869Y-84385476D02*
X152758869Y-83135476D01*
X153473154Y-84385476D01*
X153473154Y-83135476D01*
X154068392Y-84385476D02*
X154068392Y-83135476D01*
X154366011Y-83135476D01*
X154544583Y-83195000D01*
X154663630Y-83314047D01*
X154723154Y-83433095D01*
X154782678Y-83671190D01*
X154782678Y-83849761D01*
X154723154Y-84087857D01*
X154663630Y-84206904D01*
X154544583Y-84325952D01*
X154366011Y-84385476D01*
X154068392Y-84385476D01*
X151508869Y-81845476D02*
X151508869Y-80595476D01*
X151925535Y-81488333D01*
X152342202Y-80595476D01*
X152342202Y-81845476D01*
X153175535Y-80595476D02*
X153413630Y-80595476D01*
X153532678Y-80655000D01*
X153651726Y-80774047D01*
X153711250Y-81012142D01*
X153711250Y-81428809D01*
X153651726Y-81666904D01*
X153532678Y-81785952D01*
X153413630Y-81845476D01*
X153175535Y-81845476D01*
X153056488Y-81785952D01*
X152937440Y-81666904D01*
X152877916Y-81428809D01*
X152877916Y-81012142D01*
X152937440Y-80774047D01*
X153056488Y-80655000D01*
X153175535Y-80595476D01*
X154187440Y-81785952D02*
X154366011Y-81845476D01*
X154663630Y-81845476D01*
X154782678Y-81785952D01*
X154842202Y-81726428D01*
X154901726Y-81607380D01*
X154901726Y-81488333D01*
X154842202Y-81369285D01*
X154782678Y-81309761D01*
X154663630Y-81250238D01*
X154425535Y-81190714D01*
X154306488Y-81131190D01*
X154246964Y-81071666D01*
X154187440Y-80952619D01*
X154187440Y-80833571D01*
X154246964Y-80714523D01*
X154306488Y-80655000D01*
X154425535Y-80595476D01*
X154723154Y-80595476D01*
X154901726Y-80655000D01*
X155437440Y-81845476D02*
X155437440Y-80595476D01*
D13*
X151346547Y-78055476D02*
X151763214Y-79305476D01*
X152179880Y-78055476D01*
X153310833Y-79186428D02*
X153251309Y-79245952D01*
X153072738Y-79305476D01*
X152953690Y-79305476D01*
X152775119Y-79245952D01*
X152656071Y-79126904D01*
X152596547Y-79007857D01*
X152537023Y-78769761D01*
X152537023Y-78591190D01*
X152596547Y-78353095D01*
X152656071Y-78234047D01*
X152775119Y-78115000D01*
X152953690Y-78055476D01*
X153072738Y-78055476D01*
X153251309Y-78115000D01*
X153310833Y-78174523D01*
X154560833Y-79186428D02*
X154501309Y-79245952D01*
X154322738Y-79305476D01*
X154203690Y-79305476D01*
X154025119Y-79245952D01*
X153906071Y-79126904D01*
X153846547Y-79007857D01*
X153787023Y-78769761D01*
X153787023Y-78591190D01*
X153846547Y-78353095D01*
X153906071Y-78234047D01*
X154025119Y-78115000D01*
X154203690Y-78055476D01*
X154322738Y-78055476D01*
X154501309Y-78115000D01*
X154560833Y-78174523D01*
X142559642Y-82725000D02*
X143809642Y-82725000D01*
X143571547Y-84385476D02*
X143154880Y-83790238D01*
X142857261Y-84385476D02*
X142857261Y-83135476D01*
X143333452Y-83135476D01*
X143452500Y-83195000D01*
X143512023Y-83254523D01*
X143571547Y-83373571D01*
X143571547Y-83552142D01*
X143512023Y-83671190D01*
X143452500Y-83730714D01*
X143333452Y-83790238D01*
X142857261Y-83790238D01*
X143809642Y-82725000D02*
X145000119Y-82725000D01*
X144047738Y-84325952D02*
X144226309Y-84385476D01*
X144523928Y-84385476D01*
X144642976Y-84325952D01*
X144702500Y-84266428D01*
X144762023Y-84147380D01*
X144762023Y-84028333D01*
X144702500Y-83909285D01*
X144642976Y-83849761D01*
X144523928Y-83790238D01*
X144285833Y-83730714D01*
X144166785Y-83671190D01*
X144107261Y-83611666D01*
X144047738Y-83492619D01*
X144047738Y-83373571D01*
X144107261Y-83254523D01*
X144166785Y-83195000D01*
X144285833Y-83135476D01*
X144583452Y-83135476D01*
X144762023Y-83195000D01*
X145000119Y-82725000D02*
X145952500Y-82725000D01*
X145119166Y-83135476D02*
X145833452Y-83135476D01*
X145476309Y-84385476D02*
X145476309Y-83135476D01*
X142500119Y-81785952D02*
X142678690Y-81845476D01*
X142976309Y-81845476D01*
X143095357Y-81785952D01*
X143154880Y-81726428D01*
X143214404Y-81607380D01*
X143214404Y-81488333D01*
X143154880Y-81369285D01*
X143095357Y-81309761D01*
X142976309Y-81250238D01*
X142738214Y-81190714D01*
X142619166Y-81131190D01*
X142559642Y-81071666D01*
X142500119Y-80952619D01*
X142500119Y-80833571D01*
X142559642Y-80714523D01*
X142619166Y-80655000D01*
X142738214Y-80595476D01*
X143035833Y-80595476D01*
X143214404Y-80655000D01*
X144464404Y-81726428D02*
X144404880Y-81785952D01*
X144226309Y-81845476D01*
X144107261Y-81845476D01*
X143928690Y-81785952D01*
X143809642Y-81666904D01*
X143750119Y-81547857D01*
X143690595Y-81309761D01*
X143690595Y-81131190D01*
X143750119Y-80893095D01*
X143809642Y-80774047D01*
X143928690Y-80655000D01*
X144107261Y-80595476D01*
X144226309Y-80595476D01*
X144404880Y-80655000D01*
X144464404Y-80714523D01*
X145000119Y-81845476D02*
X145000119Y-80595476D01*
X145714404Y-81845476D02*
X145178690Y-81131190D01*
X145714404Y-80595476D02*
X145000119Y-81309761D01*
X141545714Y-79305476D02*
X141545714Y-78055476D01*
X141962380Y-78948333D01*
X142379047Y-78055476D01*
X142379047Y-79305476D01*
X142974285Y-79305476D02*
X142974285Y-78055476D01*
X143510000Y-79245952D02*
X143688571Y-79305476D01*
X143986190Y-79305476D01*
X144105238Y-79245952D01*
X144164761Y-79186428D01*
X144224285Y-79067380D01*
X144224285Y-78948333D01*
X144164761Y-78829285D01*
X144105238Y-78769761D01*
X143986190Y-78710238D01*
X143748095Y-78650714D01*
X143629047Y-78591190D01*
X143569523Y-78531666D01*
X143510000Y-78412619D01*
X143510000Y-78293571D01*
X143569523Y-78174523D01*
X143629047Y-78115000D01*
X143748095Y-78055476D01*
X144045714Y-78055476D01*
X144224285Y-78115000D01*
X144998095Y-78055476D02*
X145236190Y-78055476D01*
X145355238Y-78115000D01*
X145474285Y-78234047D01*
X145533809Y-78472142D01*
X145533809Y-78888809D01*
X145474285Y-79126904D01*
X145355238Y-79245952D01*
X145236190Y-79305476D01*
X144998095Y-79305476D01*
X144879047Y-79245952D01*
X144760000Y-79126904D01*
X144700476Y-78888809D01*
X144700476Y-78472142D01*
X144760000Y-78234047D01*
X144879047Y-78115000D01*
X144998095Y-78055476D01*
D11*
%TO.C,TP12*%
X135190000Y-83120000D02*
X136590000Y-83120000D01*
X136590000Y-83120000D02*
X136590000Y-84520000D01*
X136590000Y-84520000D02*
X135190000Y-84520000D01*
X135190000Y-84520000D02*
X135190000Y-83120000D01*
%TO.C,TP11*%
X137730000Y-84390000D02*
X139130000Y-84390000D01*
X139130000Y-84390000D02*
X139130000Y-85790000D01*
X139130000Y-85790000D02*
X137730000Y-85790000D01*
X137730000Y-85790000D02*
X137730000Y-84390000D01*
%TO.C,TP10*%
X135190000Y-80580000D02*
X136590000Y-80580000D01*
X136590000Y-80580000D02*
X136590000Y-81980000D01*
X136590000Y-81980000D02*
X135190000Y-81980000D01*
X135190000Y-81980000D02*
X135190000Y-80580000D01*
%TO.C,TP9*%
X137730000Y-81850000D02*
X139130000Y-81850000D01*
X139130000Y-81850000D02*
X139130000Y-83250000D01*
X139130000Y-83250000D02*
X137730000Y-83250000D01*
X137730000Y-83250000D02*
X137730000Y-81850000D01*
%TO.C,TP8*%
X137730000Y-79310000D02*
X139130000Y-79310000D01*
X139130000Y-79310000D02*
X139130000Y-80710000D01*
X139130000Y-80710000D02*
X137730000Y-80710000D01*
X137730000Y-80710000D02*
X137730000Y-79310000D01*
%TO.C,TP7*%
X135190000Y-78040000D02*
X136590000Y-78040000D01*
X136590000Y-78040000D02*
X136590000Y-79440000D01*
X136590000Y-79440000D02*
X135190000Y-79440000D01*
X135190000Y-79440000D02*
X135190000Y-78040000D01*
%TO.C,J2*%
X120590000Y-78800000D02*
X125790000Y-78800000D01*
X120590000Y-73660000D02*
X120590000Y-78800000D01*
X125790000Y-71060000D02*
X125790000Y-78800000D01*
X120590000Y-73660000D02*
X123190000Y-73660000D01*
X123190000Y-73660000D02*
X123190000Y-71060000D01*
X123190000Y-71060000D02*
X125790000Y-71060000D01*
X120590000Y-72390000D02*
X120590000Y-71060000D01*
X120590000Y-71060000D02*
X121920000Y-71060000D01*
%TO.C,J1*%
X121430000Y-85665000D02*
X124960000Y-85665000D01*
X121430000Y-92135000D02*
X124960000Y-92135000D01*
X120105000Y-85730000D02*
X121430000Y-85730000D01*
X121430000Y-85665000D02*
X121430000Y-85730000D01*
X124960000Y-85665000D02*
X124960000Y-85730000D01*
X121430000Y-92070000D02*
X121430000Y-92135000D01*
X124960000Y-92070000D02*
X124960000Y-92135000D01*
%TD*%
M02*
