%TF.GenerationSoftware,KiCad,Pcbnew,5.1.6-c6e7f7d~87~ubuntu18.04.1*%
%TF.CreationDate,2020-10-02T11:27:22-04:00*%
%TF.ProjectId,avrisp-pogopin-adapter,61767269-7370-42d7-906f-676f70696e2d,rev?*%
%TF.SameCoordinates,Original*%
%TF.FileFunction,Copper,L2,Bot*%
%TF.FilePolarity,Positive*%
%FSLAX46Y46*%
G04 Gerber Fmt 4.6, Leading zero omitted, Abs format (unit mm)*
G04 Created by KiCad (PCBNEW 5.1.6-c6e7f7d~87~ubuntu18.04.1) date 2020-10-02 11:27:22*
%MOMM*%
%LPD*%
G01*
G04 APERTURE LIST*
%TA.AperFunction,ComponentPad*%
%ADD10R,1.000000X1.000000*%
%TD*%
%TA.AperFunction,ComponentPad*%
%ADD11C,1.500000*%
%TD*%
%TA.AperFunction,ComponentPad*%
%ADD12O,1.700000X1.700000*%
%TD*%
%TA.AperFunction,ComponentPad*%
%ADD13R,1.700000X1.700000*%
%TD*%
%TA.AperFunction,ViaPad*%
%ADD14C,0.800000*%
%TD*%
%TA.AperFunction,Conductor*%
%ADD15C,0.200000*%
%TD*%
%TA.AperFunction,Conductor*%
%ADD16C,0.254000*%
%TD*%
G04 APERTURE END LIST*
D10*
%TO.P,TP12,1*%
%TO.N,GND*%
X135890000Y-83820000D03*
%TD*%
%TO.P,TP11,1*%
%TO.N,~RST*%
X138430000Y-85090000D03*
%TD*%
%TO.P,TP10,1*%
%TO.N,MOSI*%
X135890000Y-81280000D03*
%TD*%
%TO.P,TP9,1*%
%TO.N,SCK*%
X138430000Y-82550000D03*
%TD*%
%TO.P,TP8,1*%
%TO.N,MISO*%
X138430000Y-80010000D03*
%TD*%
%TO.P,TP7,1*%
%TO.N,VCC*%
X135890000Y-78740000D03*
%TD*%
D11*
%TO.P,TP6,1*%
%TO.N,GND*%
X149860000Y-83820000D03*
%TD*%
%TO.P,TP5,1*%
%TO.N,~RST*%
X147320000Y-83820000D03*
%TD*%
%TO.P,TP4,1*%
%TO.N,MOSI*%
X149860000Y-81280000D03*
%TD*%
%TO.P,TP3,1*%
%TO.N,SCK*%
X147320000Y-81280000D03*
%TD*%
%TO.P,TP2,1*%
%TO.N,VCC*%
X149860000Y-78740000D03*
%TD*%
%TO.P,TP1,1*%
%TO.N,MISO*%
X147320000Y-78740000D03*
%TD*%
D12*
%TO.P,J2,6*%
%TO.N,GND*%
X124460000Y-77470000D03*
%TO.P,J2,5*%
%TO.N,~RST*%
X121920000Y-77470000D03*
%TO.P,J2,4*%
%TO.N,MOSI*%
X124460000Y-74930000D03*
%TO.P,J2,3*%
%TO.N,SCK*%
X121920000Y-74930000D03*
%TO.P,J2,2*%
%TO.N,VCC*%
X124460000Y-72390000D03*
D13*
%TO.P,J2,1*%
%TO.N,MISO*%
X121920000Y-72390000D03*
%TD*%
D14*
%TO.N,GND*%
X121920000Y-80010000D03*
X125730000Y-83820000D03*
X128905000Y-83820000D03*
X139700000Y-76200000D03*
X143510000Y-76200000D03*
X147320000Y-76200000D03*
X151130000Y-76200000D03*
X139700000Y-86360000D03*
X143510000Y-86360000D03*
X147320000Y-86360000D03*
X151130000Y-86360000D03*
X154940000Y-76200000D03*
X154940000Y-78740000D03*
X154940000Y-81280000D03*
X154940000Y-83820000D03*
X154940000Y-86360000D03*
X135890000Y-76200000D03*
X135890000Y-86360000D03*
X132080000Y-86360000D03*
X132080000Y-76200000D03*
X129540000Y-73660000D03*
X129540000Y-69850000D03*
X129540000Y-88900000D03*
X129540000Y-92710000D03*
X125730000Y-92710000D03*
X121920000Y-92710000D03*
X125730000Y-69850000D03*
X121920000Y-69850000D03*
X119380000Y-80010000D03*
X119380000Y-76200000D03*
X119380000Y-73660000D03*
X119380000Y-83820000D03*
X119380000Y-88900000D03*
%TD*%
D15*
%TO.N,~RST*%
X138430000Y-85090000D02*
X134620000Y-85090000D01*
X134620000Y-85090000D02*
X129540000Y-80010000D01*
X129540000Y-80010000D02*
X124460000Y-80010000D01*
X124460000Y-80010000D02*
X121920000Y-77470000D01*
%TO.N,MOSI*%
X124460000Y-74930000D02*
X127000000Y-74930000D01*
X127000000Y-74930000D02*
X133350000Y-81280000D01*
X133350000Y-81280000D02*
X135890000Y-81280000D01*
%TO.N,SCK*%
X138430000Y-82550000D02*
X133350000Y-82550000D01*
X133350000Y-82550000D02*
X127000000Y-76200000D01*
X127000000Y-76200000D02*
X123190000Y-76200000D01*
X123190000Y-76200000D02*
X121920000Y-74930000D01*
%TO.N,MISO*%
X121920000Y-72390000D02*
X123190000Y-73660000D01*
X123190000Y-73660000D02*
X127000000Y-73660000D01*
X127000000Y-73660000D02*
X133350000Y-80010000D01*
X133350000Y-80010000D02*
X138430000Y-80010000D01*
%TO.N,VCC*%
X135890000Y-78740000D02*
X133350000Y-78740000D01*
X127000000Y-72390000D02*
X124460000Y-72390000D01*
X133350000Y-78740000D02*
X127000000Y-72390000D01*
%TD*%
D16*
%TO.N,GND*%
G36*
X129657869Y-69254722D02*
G01*
X129771246Y-69288953D01*
X129875819Y-69344555D01*
X129967596Y-69419407D01*
X130043091Y-69510664D01*
X130099419Y-69614844D01*
X130134440Y-69727976D01*
X130150001Y-69876031D01*
X130150000Y-73692418D01*
X130152802Y-73720864D01*
X130152747Y-73728682D01*
X130153646Y-73737853D01*
X130179554Y-73984357D01*
X130191589Y-74042986D01*
X130202792Y-74101716D01*
X130205456Y-74110538D01*
X130278751Y-74347314D01*
X130301931Y-74402457D01*
X130324339Y-74457920D01*
X130328665Y-74466054D01*
X130328667Y-74466059D01*
X130328670Y-74466064D01*
X130446553Y-74684086D01*
X130479988Y-74733654D01*
X130512759Y-74783735D01*
X130518584Y-74790876D01*
X130676577Y-74981856D01*
X130719012Y-75023995D01*
X130760875Y-75066745D01*
X130767976Y-75072618D01*
X130960053Y-75229273D01*
X131009875Y-75262374D01*
X131059237Y-75296173D01*
X131067343Y-75300556D01*
X131286191Y-75416919D01*
X131341479Y-75439707D01*
X131396475Y-75463279D01*
X131405278Y-75466003D01*
X131642559Y-75537643D01*
X131701246Y-75549264D01*
X131759752Y-75561700D01*
X131768915Y-75562663D01*
X131768917Y-75562663D01*
X132015595Y-75586850D01*
X132015598Y-75586850D01*
X132047581Y-75590000D01*
X154907721Y-75590000D01*
X155057869Y-75604722D01*
X155171246Y-75638953D01*
X155275819Y-75694555D01*
X155367596Y-75769407D01*
X155443091Y-75860664D01*
X155499419Y-75964844D01*
X155534440Y-76077976D01*
X155550001Y-76226031D01*
X155550000Y-86327721D01*
X155535278Y-86477869D01*
X155501047Y-86591246D01*
X155445446Y-86695817D01*
X155370594Y-86787595D01*
X155279335Y-86863091D01*
X155175160Y-86919419D01*
X155062024Y-86954440D01*
X154913979Y-86970000D01*
X132047581Y-86970000D01*
X132019135Y-86972802D01*
X132011318Y-86972747D01*
X132002147Y-86973646D01*
X131755644Y-86999554D01*
X131697028Y-87011586D01*
X131638284Y-87022792D01*
X131629462Y-87025456D01*
X131392686Y-87098751D01*
X131337555Y-87121926D01*
X131282080Y-87144339D01*
X131273944Y-87148666D01*
X131055914Y-87266554D01*
X131006346Y-87299988D01*
X130956265Y-87332760D01*
X130949124Y-87338584D01*
X130758144Y-87496577D01*
X130716005Y-87539012D01*
X130673255Y-87580875D01*
X130667381Y-87587976D01*
X130510727Y-87780054D01*
X130477655Y-87829831D01*
X130443826Y-87879237D01*
X130439444Y-87887343D01*
X130323081Y-88106191D01*
X130300298Y-88161468D01*
X130276721Y-88216475D01*
X130273997Y-88225278D01*
X130202357Y-88462559D01*
X130190736Y-88521246D01*
X130178300Y-88579752D01*
X130177337Y-88588917D01*
X130153150Y-88835595D01*
X130153150Y-88835608D01*
X130150001Y-88867581D01*
X130150000Y-92677721D01*
X130135278Y-92827869D01*
X130101047Y-92941246D01*
X130045446Y-93045817D01*
X129970594Y-93137595D01*
X129879335Y-93213091D01*
X129775160Y-93269419D01*
X129662024Y-93304440D01*
X129513979Y-93320000D01*
X119412279Y-93320000D01*
X119262131Y-93305278D01*
X119148754Y-93271047D01*
X119044183Y-93215446D01*
X118952405Y-93140594D01*
X118876909Y-93049335D01*
X118820581Y-92945160D01*
X118785560Y-92832024D01*
X118770000Y-92683979D01*
X118770000Y-71540000D01*
X120431928Y-71540000D01*
X120431928Y-73240000D01*
X120444188Y-73364482D01*
X120480498Y-73484180D01*
X120539463Y-73594494D01*
X120618815Y-73691185D01*
X120715506Y-73770537D01*
X120825820Y-73829502D01*
X120898380Y-73851513D01*
X120766525Y-73983368D01*
X120604010Y-74226589D01*
X120492068Y-74496842D01*
X120435000Y-74783740D01*
X120435000Y-75076260D01*
X120492068Y-75363158D01*
X120604010Y-75633411D01*
X120766525Y-75876632D01*
X120973368Y-76083475D01*
X121147760Y-76200000D01*
X120973368Y-76316525D01*
X120766525Y-76523368D01*
X120604010Y-76766589D01*
X120492068Y-77036842D01*
X120435000Y-77323740D01*
X120435000Y-77616260D01*
X120492068Y-77903158D01*
X120604010Y-78173411D01*
X120766525Y-78416632D01*
X120973368Y-78623475D01*
X121216589Y-78785990D01*
X121486842Y-78897932D01*
X121773740Y-78955000D01*
X122066260Y-78955000D01*
X122315897Y-78905344D01*
X123914746Y-80504193D01*
X123937762Y-80532238D01*
X124049680Y-80624087D01*
X124177367Y-80692337D01*
X124315915Y-80734365D01*
X124423895Y-80745000D01*
X124423904Y-80745000D01*
X124459999Y-80748555D01*
X124496094Y-80745000D01*
X129235554Y-80745000D01*
X134074746Y-85584193D01*
X134097762Y-85612238D01*
X134209680Y-85704087D01*
X134337367Y-85772337D01*
X134475915Y-85814365D01*
X134620000Y-85828556D01*
X134656105Y-85825000D01*
X137337713Y-85825000D01*
X137340498Y-85834180D01*
X137399463Y-85944494D01*
X137478815Y-86041185D01*
X137575506Y-86120537D01*
X137685820Y-86179502D01*
X137805518Y-86215812D01*
X137930000Y-86228072D01*
X138930000Y-86228072D01*
X139054482Y-86215812D01*
X139174180Y-86179502D01*
X139284494Y-86120537D01*
X139381185Y-86041185D01*
X139460537Y-85944494D01*
X139519502Y-85834180D01*
X139555812Y-85714482D01*
X139568072Y-85590000D01*
X139568072Y-84590000D01*
X139555812Y-84465518D01*
X139519502Y-84345820D01*
X139460537Y-84235506D01*
X139381185Y-84138815D01*
X139284494Y-84059463D01*
X139174180Y-84000498D01*
X139054482Y-83964188D01*
X138930000Y-83951928D01*
X137930000Y-83951928D01*
X137805518Y-83964188D01*
X137685820Y-84000498D01*
X137575506Y-84059463D01*
X137478815Y-84138815D01*
X137399463Y-84235506D01*
X137340498Y-84345820D01*
X137337713Y-84355000D01*
X137024625Y-84355000D01*
X137028072Y-84320000D01*
X137025000Y-84105750D01*
X136866250Y-83947000D01*
X136017000Y-83947000D01*
X136017000Y-83967000D01*
X135763000Y-83967000D01*
X135763000Y-83947000D01*
X134913750Y-83947000D01*
X134755000Y-84105750D01*
X134753872Y-84184425D01*
X133854447Y-83285000D01*
X134755375Y-83285000D01*
X134751928Y-83320000D01*
X134755000Y-83534250D01*
X134913750Y-83693000D01*
X135763000Y-83693000D01*
X135763000Y-83673000D01*
X136017000Y-83673000D01*
X136017000Y-83693000D01*
X136866250Y-83693000D01*
X137025000Y-83534250D01*
X137028072Y-83320000D01*
X137024625Y-83285000D01*
X137337713Y-83285000D01*
X137340498Y-83294180D01*
X137399463Y-83404494D01*
X137478815Y-83501185D01*
X137575506Y-83580537D01*
X137685820Y-83639502D01*
X137805518Y-83675812D01*
X137930000Y-83688072D01*
X138930000Y-83688072D01*
X139054482Y-83675812D01*
X139174180Y-83639502D01*
X139284494Y-83580537D01*
X139381185Y-83501185D01*
X139460537Y-83404494D01*
X139519502Y-83294180D01*
X139555812Y-83174482D01*
X139568072Y-83050000D01*
X139568072Y-82050000D01*
X139555812Y-81925518D01*
X139519502Y-81805820D01*
X139460537Y-81695506D01*
X139381185Y-81598815D01*
X139284494Y-81519463D01*
X139174180Y-81460498D01*
X139054482Y-81424188D01*
X138930000Y-81411928D01*
X137930000Y-81411928D01*
X137805518Y-81424188D01*
X137685820Y-81460498D01*
X137575506Y-81519463D01*
X137478815Y-81598815D01*
X137399463Y-81695506D01*
X137340498Y-81805820D01*
X137337713Y-81815000D01*
X137024625Y-81815000D01*
X137028072Y-81780000D01*
X137028072Y-80780000D01*
X137024625Y-80745000D01*
X137337713Y-80745000D01*
X137340498Y-80754180D01*
X137399463Y-80864494D01*
X137478815Y-80961185D01*
X137575506Y-81040537D01*
X137685820Y-81099502D01*
X137805518Y-81135812D01*
X137930000Y-81148072D01*
X138930000Y-81148072D01*
X139054482Y-81135812D01*
X139174180Y-81099502D01*
X139284494Y-81040537D01*
X139381185Y-80961185D01*
X139460537Y-80864494D01*
X139519502Y-80754180D01*
X139555812Y-80634482D01*
X139568072Y-80510000D01*
X139568072Y-79510000D01*
X139555812Y-79385518D01*
X139519502Y-79265820D01*
X139460537Y-79155506D01*
X139381185Y-79058815D01*
X139284494Y-78979463D01*
X139174180Y-78920498D01*
X139054482Y-78884188D01*
X138930000Y-78871928D01*
X137930000Y-78871928D01*
X137805518Y-78884188D01*
X137685820Y-78920498D01*
X137575506Y-78979463D01*
X137478815Y-79058815D01*
X137399463Y-79155506D01*
X137340498Y-79265820D01*
X137337713Y-79275000D01*
X137024625Y-79275000D01*
X137028072Y-79240000D01*
X137028072Y-78603589D01*
X145935000Y-78603589D01*
X145935000Y-78876411D01*
X145988225Y-79143989D01*
X146092629Y-79396043D01*
X146244201Y-79622886D01*
X146437114Y-79815799D01*
X146663957Y-79967371D01*
X146766873Y-80010000D01*
X146663957Y-80052629D01*
X146437114Y-80204201D01*
X146244201Y-80397114D01*
X146092629Y-80623957D01*
X145988225Y-80876011D01*
X145935000Y-81143589D01*
X145935000Y-81416411D01*
X145988225Y-81683989D01*
X146092629Y-81936043D01*
X146244201Y-82162886D01*
X146437114Y-82355799D01*
X146663957Y-82507371D01*
X146766873Y-82550000D01*
X146663957Y-82592629D01*
X146437114Y-82744201D01*
X146244201Y-82937114D01*
X146092629Y-83163957D01*
X145988225Y-83416011D01*
X145935000Y-83683589D01*
X145935000Y-83956411D01*
X145988225Y-84223989D01*
X146092629Y-84476043D01*
X146244201Y-84702886D01*
X146437114Y-84895799D01*
X146663957Y-85047371D01*
X146916011Y-85151775D01*
X147183589Y-85205000D01*
X147456411Y-85205000D01*
X147723989Y-85151775D01*
X147976043Y-85047371D01*
X148202886Y-84895799D01*
X148321692Y-84776993D01*
X149082612Y-84776993D01*
X149148137Y-85015860D01*
X149395116Y-85131760D01*
X149659960Y-85197250D01*
X149932492Y-85209812D01*
X150202238Y-85168965D01*
X150458832Y-85076277D01*
X150571863Y-85015860D01*
X150637388Y-84776993D01*
X149860000Y-83999605D01*
X149082612Y-84776993D01*
X148321692Y-84776993D01*
X148395799Y-84702886D01*
X148547371Y-84476043D01*
X148588511Y-84376721D01*
X148603723Y-84418832D01*
X148664140Y-84531863D01*
X148903007Y-84597388D01*
X149680395Y-83820000D01*
X150039605Y-83820000D01*
X150816993Y-84597388D01*
X151055860Y-84531863D01*
X151171760Y-84284884D01*
X151237250Y-84020040D01*
X151249812Y-83747508D01*
X151208965Y-83477762D01*
X151116277Y-83221168D01*
X151055860Y-83108137D01*
X150816993Y-83042612D01*
X150039605Y-83820000D01*
X149680395Y-83820000D01*
X148903007Y-83042612D01*
X148664140Y-83108137D01*
X148589836Y-83266477D01*
X148547371Y-83163957D01*
X148395799Y-82937114D01*
X148202886Y-82744201D01*
X147976043Y-82592629D01*
X147873127Y-82550000D01*
X147976043Y-82507371D01*
X148202886Y-82355799D01*
X148395799Y-82162886D01*
X148547371Y-81936043D01*
X148590000Y-81833127D01*
X148632629Y-81936043D01*
X148784201Y-82162886D01*
X148977114Y-82355799D01*
X149203957Y-82507371D01*
X149303279Y-82548511D01*
X149261168Y-82563723D01*
X149148137Y-82624140D01*
X149082612Y-82863007D01*
X149860000Y-83640395D01*
X150637388Y-82863007D01*
X150571863Y-82624140D01*
X150413523Y-82549836D01*
X150516043Y-82507371D01*
X150742886Y-82355799D01*
X150935799Y-82162886D01*
X151087371Y-81936043D01*
X151191775Y-81683989D01*
X151245000Y-81416411D01*
X151245000Y-81143589D01*
X151191775Y-80876011D01*
X151087371Y-80623957D01*
X150935799Y-80397114D01*
X150742886Y-80204201D01*
X150516043Y-80052629D01*
X150413127Y-80010000D01*
X150516043Y-79967371D01*
X150742886Y-79815799D01*
X150935799Y-79622886D01*
X151087371Y-79396043D01*
X151191775Y-79143989D01*
X151245000Y-78876411D01*
X151245000Y-78603589D01*
X151191775Y-78336011D01*
X151087371Y-78083957D01*
X150935799Y-77857114D01*
X150742886Y-77664201D01*
X150516043Y-77512629D01*
X150263989Y-77408225D01*
X149996411Y-77355000D01*
X149723589Y-77355000D01*
X149456011Y-77408225D01*
X149203957Y-77512629D01*
X148977114Y-77664201D01*
X148784201Y-77857114D01*
X148632629Y-78083957D01*
X148590000Y-78186873D01*
X148547371Y-78083957D01*
X148395799Y-77857114D01*
X148202886Y-77664201D01*
X147976043Y-77512629D01*
X147723989Y-77408225D01*
X147456411Y-77355000D01*
X147183589Y-77355000D01*
X146916011Y-77408225D01*
X146663957Y-77512629D01*
X146437114Y-77664201D01*
X146244201Y-77857114D01*
X146092629Y-78083957D01*
X145988225Y-78336011D01*
X145935000Y-78603589D01*
X137028072Y-78603589D01*
X137028072Y-78240000D01*
X137015812Y-78115518D01*
X136979502Y-77995820D01*
X136920537Y-77885506D01*
X136841185Y-77788815D01*
X136744494Y-77709463D01*
X136634180Y-77650498D01*
X136514482Y-77614188D01*
X136390000Y-77601928D01*
X135390000Y-77601928D01*
X135265518Y-77614188D01*
X135145820Y-77650498D01*
X135035506Y-77709463D01*
X134938815Y-77788815D01*
X134859463Y-77885506D01*
X134800498Y-77995820D01*
X134797713Y-78005000D01*
X133654447Y-78005000D01*
X127545259Y-71895813D01*
X127522238Y-71867762D01*
X127410320Y-71775913D01*
X127282633Y-71707663D01*
X127144085Y-71665635D01*
X127036105Y-71655000D01*
X127000000Y-71651444D01*
X126963895Y-71655000D01*
X125754883Y-71655000D01*
X125613475Y-71443368D01*
X125406632Y-71236525D01*
X125163411Y-71074010D01*
X124893158Y-70962068D01*
X124606260Y-70905000D01*
X124313740Y-70905000D01*
X124026842Y-70962068D01*
X123756589Y-71074010D01*
X123513368Y-71236525D01*
X123381513Y-71368380D01*
X123359502Y-71295820D01*
X123300537Y-71185506D01*
X123221185Y-71088815D01*
X123124494Y-71009463D01*
X123014180Y-70950498D01*
X122894482Y-70914188D01*
X122770000Y-70901928D01*
X121070000Y-70901928D01*
X120945518Y-70914188D01*
X120825820Y-70950498D01*
X120715506Y-71009463D01*
X120618815Y-71088815D01*
X120539463Y-71185506D01*
X120480498Y-71295820D01*
X120444188Y-71415518D01*
X120431928Y-71540000D01*
X118770000Y-71540000D01*
X118770000Y-69882279D01*
X118784722Y-69732131D01*
X118818953Y-69618754D01*
X118874555Y-69514181D01*
X118949407Y-69422404D01*
X119040664Y-69346909D01*
X119144844Y-69290581D01*
X119257976Y-69255560D01*
X119406022Y-69240000D01*
X129507721Y-69240000D01*
X129657869Y-69254722D01*
G37*
X129657869Y-69254722D02*
X129771246Y-69288953D01*
X129875819Y-69344555D01*
X129967596Y-69419407D01*
X130043091Y-69510664D01*
X130099419Y-69614844D01*
X130134440Y-69727976D01*
X130150001Y-69876031D01*
X130150000Y-73692418D01*
X130152802Y-73720864D01*
X130152747Y-73728682D01*
X130153646Y-73737853D01*
X130179554Y-73984357D01*
X130191589Y-74042986D01*
X130202792Y-74101716D01*
X130205456Y-74110538D01*
X130278751Y-74347314D01*
X130301931Y-74402457D01*
X130324339Y-74457920D01*
X130328665Y-74466054D01*
X130328667Y-74466059D01*
X130328670Y-74466064D01*
X130446553Y-74684086D01*
X130479988Y-74733654D01*
X130512759Y-74783735D01*
X130518584Y-74790876D01*
X130676577Y-74981856D01*
X130719012Y-75023995D01*
X130760875Y-75066745D01*
X130767976Y-75072618D01*
X130960053Y-75229273D01*
X131009875Y-75262374D01*
X131059237Y-75296173D01*
X131067343Y-75300556D01*
X131286191Y-75416919D01*
X131341479Y-75439707D01*
X131396475Y-75463279D01*
X131405278Y-75466003D01*
X131642559Y-75537643D01*
X131701246Y-75549264D01*
X131759752Y-75561700D01*
X131768915Y-75562663D01*
X131768917Y-75562663D01*
X132015595Y-75586850D01*
X132015598Y-75586850D01*
X132047581Y-75590000D01*
X154907721Y-75590000D01*
X155057869Y-75604722D01*
X155171246Y-75638953D01*
X155275819Y-75694555D01*
X155367596Y-75769407D01*
X155443091Y-75860664D01*
X155499419Y-75964844D01*
X155534440Y-76077976D01*
X155550001Y-76226031D01*
X155550000Y-86327721D01*
X155535278Y-86477869D01*
X155501047Y-86591246D01*
X155445446Y-86695817D01*
X155370594Y-86787595D01*
X155279335Y-86863091D01*
X155175160Y-86919419D01*
X155062024Y-86954440D01*
X154913979Y-86970000D01*
X132047581Y-86970000D01*
X132019135Y-86972802D01*
X132011318Y-86972747D01*
X132002147Y-86973646D01*
X131755644Y-86999554D01*
X131697028Y-87011586D01*
X131638284Y-87022792D01*
X131629462Y-87025456D01*
X131392686Y-87098751D01*
X131337555Y-87121926D01*
X131282080Y-87144339D01*
X131273944Y-87148666D01*
X131055914Y-87266554D01*
X131006346Y-87299988D01*
X130956265Y-87332760D01*
X130949124Y-87338584D01*
X130758144Y-87496577D01*
X130716005Y-87539012D01*
X130673255Y-87580875D01*
X130667381Y-87587976D01*
X130510727Y-87780054D01*
X130477655Y-87829831D01*
X130443826Y-87879237D01*
X130439444Y-87887343D01*
X130323081Y-88106191D01*
X130300298Y-88161468D01*
X130276721Y-88216475D01*
X130273997Y-88225278D01*
X130202357Y-88462559D01*
X130190736Y-88521246D01*
X130178300Y-88579752D01*
X130177337Y-88588917D01*
X130153150Y-88835595D01*
X130153150Y-88835608D01*
X130150001Y-88867581D01*
X130150000Y-92677721D01*
X130135278Y-92827869D01*
X130101047Y-92941246D01*
X130045446Y-93045817D01*
X129970594Y-93137595D01*
X129879335Y-93213091D01*
X129775160Y-93269419D01*
X129662024Y-93304440D01*
X129513979Y-93320000D01*
X119412279Y-93320000D01*
X119262131Y-93305278D01*
X119148754Y-93271047D01*
X119044183Y-93215446D01*
X118952405Y-93140594D01*
X118876909Y-93049335D01*
X118820581Y-92945160D01*
X118785560Y-92832024D01*
X118770000Y-92683979D01*
X118770000Y-71540000D01*
X120431928Y-71540000D01*
X120431928Y-73240000D01*
X120444188Y-73364482D01*
X120480498Y-73484180D01*
X120539463Y-73594494D01*
X120618815Y-73691185D01*
X120715506Y-73770537D01*
X120825820Y-73829502D01*
X120898380Y-73851513D01*
X120766525Y-73983368D01*
X120604010Y-74226589D01*
X120492068Y-74496842D01*
X120435000Y-74783740D01*
X120435000Y-75076260D01*
X120492068Y-75363158D01*
X120604010Y-75633411D01*
X120766525Y-75876632D01*
X120973368Y-76083475D01*
X121147760Y-76200000D01*
X120973368Y-76316525D01*
X120766525Y-76523368D01*
X120604010Y-76766589D01*
X120492068Y-77036842D01*
X120435000Y-77323740D01*
X120435000Y-77616260D01*
X120492068Y-77903158D01*
X120604010Y-78173411D01*
X120766525Y-78416632D01*
X120973368Y-78623475D01*
X121216589Y-78785990D01*
X121486842Y-78897932D01*
X121773740Y-78955000D01*
X122066260Y-78955000D01*
X122315897Y-78905344D01*
X123914746Y-80504193D01*
X123937762Y-80532238D01*
X124049680Y-80624087D01*
X124177367Y-80692337D01*
X124315915Y-80734365D01*
X124423895Y-80745000D01*
X124423904Y-80745000D01*
X124459999Y-80748555D01*
X124496094Y-80745000D01*
X129235554Y-80745000D01*
X134074746Y-85584193D01*
X134097762Y-85612238D01*
X134209680Y-85704087D01*
X134337367Y-85772337D01*
X134475915Y-85814365D01*
X134620000Y-85828556D01*
X134656105Y-85825000D01*
X137337713Y-85825000D01*
X137340498Y-85834180D01*
X137399463Y-85944494D01*
X137478815Y-86041185D01*
X137575506Y-86120537D01*
X137685820Y-86179502D01*
X137805518Y-86215812D01*
X137930000Y-86228072D01*
X138930000Y-86228072D01*
X139054482Y-86215812D01*
X139174180Y-86179502D01*
X139284494Y-86120537D01*
X139381185Y-86041185D01*
X139460537Y-85944494D01*
X139519502Y-85834180D01*
X139555812Y-85714482D01*
X139568072Y-85590000D01*
X139568072Y-84590000D01*
X139555812Y-84465518D01*
X139519502Y-84345820D01*
X139460537Y-84235506D01*
X139381185Y-84138815D01*
X139284494Y-84059463D01*
X139174180Y-84000498D01*
X139054482Y-83964188D01*
X138930000Y-83951928D01*
X137930000Y-83951928D01*
X137805518Y-83964188D01*
X137685820Y-84000498D01*
X137575506Y-84059463D01*
X137478815Y-84138815D01*
X137399463Y-84235506D01*
X137340498Y-84345820D01*
X137337713Y-84355000D01*
X137024625Y-84355000D01*
X137028072Y-84320000D01*
X137025000Y-84105750D01*
X136866250Y-83947000D01*
X136017000Y-83947000D01*
X136017000Y-83967000D01*
X135763000Y-83967000D01*
X135763000Y-83947000D01*
X134913750Y-83947000D01*
X134755000Y-84105750D01*
X134753872Y-84184425D01*
X133854447Y-83285000D01*
X134755375Y-83285000D01*
X134751928Y-83320000D01*
X134755000Y-83534250D01*
X134913750Y-83693000D01*
X135763000Y-83693000D01*
X135763000Y-83673000D01*
X136017000Y-83673000D01*
X136017000Y-83693000D01*
X136866250Y-83693000D01*
X137025000Y-83534250D01*
X137028072Y-83320000D01*
X137024625Y-83285000D01*
X137337713Y-83285000D01*
X137340498Y-83294180D01*
X137399463Y-83404494D01*
X137478815Y-83501185D01*
X137575506Y-83580537D01*
X137685820Y-83639502D01*
X137805518Y-83675812D01*
X137930000Y-83688072D01*
X138930000Y-83688072D01*
X139054482Y-83675812D01*
X139174180Y-83639502D01*
X139284494Y-83580537D01*
X139381185Y-83501185D01*
X139460537Y-83404494D01*
X139519502Y-83294180D01*
X139555812Y-83174482D01*
X139568072Y-83050000D01*
X139568072Y-82050000D01*
X139555812Y-81925518D01*
X139519502Y-81805820D01*
X139460537Y-81695506D01*
X139381185Y-81598815D01*
X139284494Y-81519463D01*
X139174180Y-81460498D01*
X139054482Y-81424188D01*
X138930000Y-81411928D01*
X137930000Y-81411928D01*
X137805518Y-81424188D01*
X137685820Y-81460498D01*
X137575506Y-81519463D01*
X137478815Y-81598815D01*
X137399463Y-81695506D01*
X137340498Y-81805820D01*
X137337713Y-81815000D01*
X137024625Y-81815000D01*
X137028072Y-81780000D01*
X137028072Y-80780000D01*
X137024625Y-80745000D01*
X137337713Y-80745000D01*
X137340498Y-80754180D01*
X137399463Y-80864494D01*
X137478815Y-80961185D01*
X137575506Y-81040537D01*
X137685820Y-81099502D01*
X137805518Y-81135812D01*
X137930000Y-81148072D01*
X138930000Y-81148072D01*
X139054482Y-81135812D01*
X139174180Y-81099502D01*
X139284494Y-81040537D01*
X139381185Y-80961185D01*
X139460537Y-80864494D01*
X139519502Y-80754180D01*
X139555812Y-80634482D01*
X139568072Y-80510000D01*
X139568072Y-79510000D01*
X139555812Y-79385518D01*
X139519502Y-79265820D01*
X139460537Y-79155506D01*
X139381185Y-79058815D01*
X139284494Y-78979463D01*
X139174180Y-78920498D01*
X139054482Y-78884188D01*
X138930000Y-78871928D01*
X137930000Y-78871928D01*
X137805518Y-78884188D01*
X137685820Y-78920498D01*
X137575506Y-78979463D01*
X137478815Y-79058815D01*
X137399463Y-79155506D01*
X137340498Y-79265820D01*
X137337713Y-79275000D01*
X137024625Y-79275000D01*
X137028072Y-79240000D01*
X137028072Y-78603589D01*
X145935000Y-78603589D01*
X145935000Y-78876411D01*
X145988225Y-79143989D01*
X146092629Y-79396043D01*
X146244201Y-79622886D01*
X146437114Y-79815799D01*
X146663957Y-79967371D01*
X146766873Y-80010000D01*
X146663957Y-80052629D01*
X146437114Y-80204201D01*
X146244201Y-80397114D01*
X146092629Y-80623957D01*
X145988225Y-80876011D01*
X145935000Y-81143589D01*
X145935000Y-81416411D01*
X145988225Y-81683989D01*
X146092629Y-81936043D01*
X146244201Y-82162886D01*
X146437114Y-82355799D01*
X146663957Y-82507371D01*
X146766873Y-82550000D01*
X146663957Y-82592629D01*
X146437114Y-82744201D01*
X146244201Y-82937114D01*
X146092629Y-83163957D01*
X145988225Y-83416011D01*
X145935000Y-83683589D01*
X145935000Y-83956411D01*
X145988225Y-84223989D01*
X146092629Y-84476043D01*
X146244201Y-84702886D01*
X146437114Y-84895799D01*
X146663957Y-85047371D01*
X146916011Y-85151775D01*
X147183589Y-85205000D01*
X147456411Y-85205000D01*
X147723989Y-85151775D01*
X147976043Y-85047371D01*
X148202886Y-84895799D01*
X148321692Y-84776993D01*
X149082612Y-84776993D01*
X149148137Y-85015860D01*
X149395116Y-85131760D01*
X149659960Y-85197250D01*
X149932492Y-85209812D01*
X150202238Y-85168965D01*
X150458832Y-85076277D01*
X150571863Y-85015860D01*
X150637388Y-84776993D01*
X149860000Y-83999605D01*
X149082612Y-84776993D01*
X148321692Y-84776993D01*
X148395799Y-84702886D01*
X148547371Y-84476043D01*
X148588511Y-84376721D01*
X148603723Y-84418832D01*
X148664140Y-84531863D01*
X148903007Y-84597388D01*
X149680395Y-83820000D01*
X150039605Y-83820000D01*
X150816993Y-84597388D01*
X151055860Y-84531863D01*
X151171760Y-84284884D01*
X151237250Y-84020040D01*
X151249812Y-83747508D01*
X151208965Y-83477762D01*
X151116277Y-83221168D01*
X151055860Y-83108137D01*
X150816993Y-83042612D01*
X150039605Y-83820000D01*
X149680395Y-83820000D01*
X148903007Y-83042612D01*
X148664140Y-83108137D01*
X148589836Y-83266477D01*
X148547371Y-83163957D01*
X148395799Y-82937114D01*
X148202886Y-82744201D01*
X147976043Y-82592629D01*
X147873127Y-82550000D01*
X147976043Y-82507371D01*
X148202886Y-82355799D01*
X148395799Y-82162886D01*
X148547371Y-81936043D01*
X148590000Y-81833127D01*
X148632629Y-81936043D01*
X148784201Y-82162886D01*
X148977114Y-82355799D01*
X149203957Y-82507371D01*
X149303279Y-82548511D01*
X149261168Y-82563723D01*
X149148137Y-82624140D01*
X149082612Y-82863007D01*
X149860000Y-83640395D01*
X150637388Y-82863007D01*
X150571863Y-82624140D01*
X150413523Y-82549836D01*
X150516043Y-82507371D01*
X150742886Y-82355799D01*
X150935799Y-82162886D01*
X151087371Y-81936043D01*
X151191775Y-81683989D01*
X151245000Y-81416411D01*
X151245000Y-81143589D01*
X151191775Y-80876011D01*
X151087371Y-80623957D01*
X150935799Y-80397114D01*
X150742886Y-80204201D01*
X150516043Y-80052629D01*
X150413127Y-80010000D01*
X150516043Y-79967371D01*
X150742886Y-79815799D01*
X150935799Y-79622886D01*
X151087371Y-79396043D01*
X151191775Y-79143989D01*
X151245000Y-78876411D01*
X151245000Y-78603589D01*
X151191775Y-78336011D01*
X151087371Y-78083957D01*
X150935799Y-77857114D01*
X150742886Y-77664201D01*
X150516043Y-77512629D01*
X150263989Y-77408225D01*
X149996411Y-77355000D01*
X149723589Y-77355000D01*
X149456011Y-77408225D01*
X149203957Y-77512629D01*
X148977114Y-77664201D01*
X148784201Y-77857114D01*
X148632629Y-78083957D01*
X148590000Y-78186873D01*
X148547371Y-78083957D01*
X148395799Y-77857114D01*
X148202886Y-77664201D01*
X147976043Y-77512629D01*
X147723989Y-77408225D01*
X147456411Y-77355000D01*
X147183589Y-77355000D01*
X146916011Y-77408225D01*
X146663957Y-77512629D01*
X146437114Y-77664201D01*
X146244201Y-77857114D01*
X146092629Y-78083957D01*
X145988225Y-78336011D01*
X145935000Y-78603589D01*
X137028072Y-78603589D01*
X137028072Y-78240000D01*
X137015812Y-78115518D01*
X136979502Y-77995820D01*
X136920537Y-77885506D01*
X136841185Y-77788815D01*
X136744494Y-77709463D01*
X136634180Y-77650498D01*
X136514482Y-77614188D01*
X136390000Y-77601928D01*
X135390000Y-77601928D01*
X135265518Y-77614188D01*
X135145820Y-77650498D01*
X135035506Y-77709463D01*
X134938815Y-77788815D01*
X134859463Y-77885506D01*
X134800498Y-77995820D01*
X134797713Y-78005000D01*
X133654447Y-78005000D01*
X127545259Y-71895813D01*
X127522238Y-71867762D01*
X127410320Y-71775913D01*
X127282633Y-71707663D01*
X127144085Y-71665635D01*
X127036105Y-71655000D01*
X127000000Y-71651444D01*
X126963895Y-71655000D01*
X125754883Y-71655000D01*
X125613475Y-71443368D01*
X125406632Y-71236525D01*
X125163411Y-71074010D01*
X124893158Y-70962068D01*
X124606260Y-70905000D01*
X124313740Y-70905000D01*
X124026842Y-70962068D01*
X123756589Y-71074010D01*
X123513368Y-71236525D01*
X123381513Y-71368380D01*
X123359502Y-71295820D01*
X123300537Y-71185506D01*
X123221185Y-71088815D01*
X123124494Y-71009463D01*
X123014180Y-70950498D01*
X122894482Y-70914188D01*
X122770000Y-70901928D01*
X121070000Y-70901928D01*
X120945518Y-70914188D01*
X120825820Y-70950498D01*
X120715506Y-71009463D01*
X120618815Y-71088815D01*
X120539463Y-71185506D01*
X120480498Y-71295820D01*
X120444188Y-71415518D01*
X120431928Y-71540000D01*
X118770000Y-71540000D01*
X118770000Y-69882279D01*
X118784722Y-69732131D01*
X118818953Y-69618754D01*
X118874555Y-69514181D01*
X118949407Y-69422404D01*
X119040664Y-69346909D01*
X119144844Y-69290581D01*
X119257976Y-69255560D01*
X119406022Y-69240000D01*
X129507721Y-69240000D01*
X129657869Y-69254722D01*
G36*
X129035554Y-79275000D02*
G01*
X124764447Y-79275000D01*
X124298414Y-78808968D01*
X124333000Y-78790814D01*
X124333000Y-77597000D01*
X124587000Y-77597000D01*
X124587000Y-78790814D01*
X124816891Y-78911481D01*
X125091252Y-78814157D01*
X125341355Y-78665178D01*
X125557588Y-78470269D01*
X125731641Y-78236920D01*
X125856825Y-77974099D01*
X125901476Y-77826890D01*
X125780155Y-77597000D01*
X124587000Y-77597000D01*
X124333000Y-77597000D01*
X124313000Y-77597000D01*
X124313000Y-77343000D01*
X124333000Y-77343000D01*
X124333000Y-77323000D01*
X124587000Y-77323000D01*
X124587000Y-77343000D01*
X125780155Y-77343000D01*
X125901476Y-77113110D01*
X125856825Y-76965901D01*
X125842107Y-76935000D01*
X126695554Y-76935000D01*
X129035554Y-79275000D01*
G37*
X129035554Y-79275000D02*
X124764447Y-79275000D01*
X124298414Y-78808968D01*
X124333000Y-78790814D01*
X124333000Y-77597000D01*
X124587000Y-77597000D01*
X124587000Y-78790814D01*
X124816891Y-78911481D01*
X125091252Y-78814157D01*
X125341355Y-78665178D01*
X125557588Y-78470269D01*
X125731641Y-78236920D01*
X125856825Y-77974099D01*
X125901476Y-77826890D01*
X125780155Y-77597000D01*
X124587000Y-77597000D01*
X124333000Y-77597000D01*
X124313000Y-77597000D01*
X124313000Y-77343000D01*
X124333000Y-77343000D01*
X124333000Y-77323000D01*
X124587000Y-77323000D01*
X124587000Y-77343000D01*
X125780155Y-77343000D01*
X125901476Y-77113110D01*
X125856825Y-76965901D01*
X125842107Y-76935000D01*
X126695554Y-76935000D01*
X129035554Y-79275000D01*
%TD*%
M02*
