%TF.GenerationSoftware,KiCad,Pcbnew,5.1.6-c6e7f7d~87~ubuntu18.04.1*%
%TF.CreationDate,2020-10-02T11:27:22-04:00*%
%TF.ProjectId,avrisp-pogopin-adapter,61767269-7370-42d7-906f-676f70696e2d,rev?*%
%TF.SameCoordinates,Original*%
%TF.FileFunction,Copper,L1,Top*%
%TF.FilePolarity,Positive*%
%FSLAX46Y46*%
G04 Gerber Fmt 4.6, Leading zero omitted, Abs format (unit mm)*
G04 Created by KiCad (PCBNEW 5.1.6-c6e7f7d~87~ubuntu18.04.1) date 2020-10-02 11:27:22*
%MOMM*%
%LPD*%
G01*
G04 APERTURE LIST*
%TA.AperFunction,ComponentPad*%
%ADD10R,1.000000X1.000000*%
%TD*%
%TA.AperFunction,ComponentPad*%
%ADD11C,1.500000*%
%TD*%
%TA.AperFunction,ComponentPad*%
%ADD12O,1.700000X1.700000*%
%TD*%
%TA.AperFunction,ComponentPad*%
%ADD13R,1.700000X1.700000*%
%TD*%
%TA.AperFunction,SMDPad,CuDef*%
%ADD14R,2.400000X0.740000*%
%TD*%
%TA.AperFunction,ViaPad*%
%ADD15C,0.800000*%
%TD*%
%TA.AperFunction,Conductor*%
%ADD16C,0.200000*%
%TD*%
%TA.AperFunction,Conductor*%
%ADD17C,0.254000*%
%TD*%
G04 APERTURE END LIST*
D10*
%TO.P,TP12,1*%
%TO.N,GND*%
X135890000Y-83820000D03*
%TD*%
%TO.P,TP11,1*%
%TO.N,~RST*%
X138430000Y-85090000D03*
%TD*%
%TO.P,TP10,1*%
%TO.N,MOSI*%
X135890000Y-81280000D03*
%TD*%
%TO.P,TP9,1*%
%TO.N,SCK*%
X138430000Y-82550000D03*
%TD*%
%TO.P,TP8,1*%
%TO.N,MISO*%
X138430000Y-80010000D03*
%TD*%
%TO.P,TP7,1*%
%TO.N,VCC*%
X135890000Y-78740000D03*
%TD*%
D11*
%TO.P,TP6,1*%
%TO.N,GND*%
X149860000Y-83820000D03*
%TD*%
%TO.P,TP5,1*%
%TO.N,~RST*%
X147320000Y-83820000D03*
%TD*%
%TO.P,TP4,1*%
%TO.N,MOSI*%
X149860000Y-81280000D03*
%TD*%
%TO.P,TP3,1*%
%TO.N,SCK*%
X147320000Y-81280000D03*
%TD*%
%TO.P,TP2,1*%
%TO.N,VCC*%
X149860000Y-78740000D03*
%TD*%
%TO.P,TP1,1*%
%TO.N,MISO*%
X147320000Y-78740000D03*
%TD*%
D12*
%TO.P,J2,6*%
%TO.N,GND*%
X124460000Y-77470000D03*
%TO.P,J2,5*%
%TO.N,~RST*%
X121920000Y-77470000D03*
%TO.P,J2,4*%
%TO.N,MOSI*%
X124460000Y-74930000D03*
%TO.P,J2,3*%
%TO.N,SCK*%
X121920000Y-74930000D03*
%TO.P,J2,2*%
%TO.N,VCC*%
X124460000Y-72390000D03*
D13*
%TO.P,J2,1*%
%TO.N,MISO*%
X121920000Y-72390000D03*
%TD*%
D14*
%TO.P,J1,10*%
%TO.N,Net-(J1-Pad10)*%
X125145000Y-91440000D03*
%TO.P,J1,9*%
%TO.N,MOSI*%
X121245000Y-91440000D03*
%TO.P,J1,8*%
%TO.N,Net-(J1-Pad8)*%
X125145000Y-90170000D03*
%TO.P,J1,7*%
%TO.N,Net-(J1-Pad7)*%
X121245000Y-90170000D03*
%TO.P,J1,6*%
%TO.N,~RST*%
X125145000Y-88900000D03*
%TO.P,J1,5*%
%TO.N,Net-(J1-Pad5)*%
X121245000Y-88900000D03*
%TO.P,J1,4*%
%TO.N,VCC*%
X125145000Y-87630000D03*
%TO.P,J1,3*%
%TO.N,MISO*%
X121245000Y-87630000D03*
%TO.P,J1,2*%
%TO.N,GND*%
X125145000Y-86360000D03*
%TO.P,J1,1*%
%TO.N,SCK*%
X121245000Y-86360000D03*
%TD*%
D15*
%TO.N,GND*%
X121920000Y-80010000D03*
X125730000Y-83820000D03*
X128905000Y-83820000D03*
X139700000Y-76200000D03*
X143510000Y-76200000D03*
X147320000Y-76200000D03*
X151130000Y-76200000D03*
X139700000Y-86360000D03*
X143510000Y-86360000D03*
X147320000Y-86360000D03*
X151130000Y-86360000D03*
X154940000Y-76200000D03*
X154940000Y-78740000D03*
X154940000Y-81280000D03*
X154940000Y-83820000D03*
X154940000Y-86360000D03*
X135890000Y-76200000D03*
X135890000Y-86360000D03*
X132080000Y-86360000D03*
X132080000Y-76200000D03*
X129540000Y-73660000D03*
X129540000Y-69850000D03*
X129540000Y-88900000D03*
X129540000Y-92710000D03*
X125730000Y-92710000D03*
X121920000Y-92710000D03*
X125730000Y-69850000D03*
X121920000Y-69850000D03*
X119380000Y-80010000D03*
X119380000Y-76200000D03*
X119380000Y-73660000D03*
X119380000Y-83820000D03*
X119380000Y-88900000D03*
%TD*%
D16*
%TO.N,~RST*%
X147320000Y-83820000D02*
X144780000Y-83820000D01*
X144780000Y-83820000D02*
X143510000Y-85090000D01*
X143510000Y-85090000D02*
X138430000Y-85090000D01*
X125145000Y-88900000D02*
X127000000Y-88900000D01*
X127000000Y-88900000D02*
X130810000Y-85090000D01*
X130810000Y-85090000D02*
X138430000Y-85090000D01*
%TO.N,MOSI*%
X149860000Y-81280000D02*
X148590000Y-80010000D01*
X148590000Y-80010000D02*
X144780000Y-80010000D01*
X144780000Y-80010000D02*
X143510000Y-81280000D01*
X143510000Y-81280000D02*
X135890000Y-81280000D01*
X123309999Y-76080001D02*
X124460000Y-74930000D01*
X123309999Y-90775001D02*
X123309999Y-76080001D01*
X122645000Y-91440000D02*
X123309999Y-90775001D01*
X121245000Y-91440000D02*
X122645000Y-91440000D01*
%TO.N,SCK*%
X147320000Y-81280000D02*
X144780000Y-81280000D01*
X143510000Y-82550000D02*
X138430000Y-82550000D01*
X144780000Y-81280000D02*
X143510000Y-82550000D01*
X121245000Y-86360000D02*
X121245000Y-85685000D01*
X120769999Y-85209999D02*
X120769999Y-76080001D01*
X120769999Y-76080001D02*
X121920000Y-74930000D01*
X121245000Y-85685000D02*
X120769999Y-85209999D01*
%TO.N,MISO*%
X147320000Y-78740000D02*
X144780000Y-78740000D01*
X144780000Y-78740000D02*
X143510000Y-80010000D01*
X143510000Y-80010000D02*
X138430000Y-80010000D01*
X119744999Y-87529999D02*
X119744999Y-85714990D01*
X121245000Y-87630000D02*
X119845000Y-87630000D01*
X119845000Y-87630000D02*
X119744999Y-87529999D01*
X119744999Y-85714990D02*
X120369989Y-85090000D01*
X121920000Y-73227998D02*
X121920000Y-72390000D01*
X120369989Y-74778009D02*
X121920000Y-73227998D01*
X120369989Y-85090000D02*
X120369989Y-74778009D01*
%TO.N,VCC*%
X149860000Y-78740000D02*
X148590000Y-77470000D01*
X148590000Y-77470000D02*
X144780000Y-77470000D01*
X144780000Y-77470000D02*
X143510000Y-78740000D01*
X143510000Y-78740000D02*
X135890000Y-78740000D01*
X135435000Y-78740000D02*
X135890000Y-78740000D01*
X126545000Y-87630000D02*
X135435000Y-78740000D01*
X125145000Y-87630000D02*
X126545000Y-87630000D01*
%TD*%
D17*
%TO.N,GND*%
G36*
X129657869Y-69254722D02*
G01*
X129771246Y-69288953D01*
X129875819Y-69344555D01*
X129967596Y-69419407D01*
X130043091Y-69510664D01*
X130099419Y-69614844D01*
X130134440Y-69727976D01*
X130150001Y-69876031D01*
X130150000Y-73692418D01*
X130152802Y-73720864D01*
X130152747Y-73728682D01*
X130153646Y-73737853D01*
X130179554Y-73984357D01*
X130191589Y-74042986D01*
X130202792Y-74101716D01*
X130205456Y-74110538D01*
X130278751Y-74347314D01*
X130301931Y-74402457D01*
X130324339Y-74457920D01*
X130328665Y-74466054D01*
X130328667Y-74466059D01*
X130328670Y-74466064D01*
X130446553Y-74684086D01*
X130479988Y-74733654D01*
X130512759Y-74783735D01*
X130518584Y-74790876D01*
X130676577Y-74981856D01*
X130719012Y-75023995D01*
X130760875Y-75066745D01*
X130767976Y-75072618D01*
X130960053Y-75229273D01*
X131009875Y-75262374D01*
X131059237Y-75296173D01*
X131067343Y-75300556D01*
X131286191Y-75416919D01*
X131341479Y-75439707D01*
X131396475Y-75463279D01*
X131405278Y-75466003D01*
X131642559Y-75537643D01*
X131701246Y-75549264D01*
X131759752Y-75561700D01*
X131768915Y-75562663D01*
X131768917Y-75562663D01*
X132015595Y-75586850D01*
X132015598Y-75586850D01*
X132047581Y-75590000D01*
X154907721Y-75590000D01*
X155057869Y-75604722D01*
X155171246Y-75638953D01*
X155275819Y-75694555D01*
X155367596Y-75769407D01*
X155443091Y-75860664D01*
X155499419Y-75964844D01*
X155534440Y-76077976D01*
X155550001Y-76226031D01*
X155550000Y-86327721D01*
X155535278Y-86477869D01*
X155501047Y-86591246D01*
X155445446Y-86695817D01*
X155370594Y-86787595D01*
X155279335Y-86863091D01*
X155175160Y-86919419D01*
X155062024Y-86954440D01*
X154913979Y-86970000D01*
X132047581Y-86970000D01*
X132019135Y-86972802D01*
X132011318Y-86972747D01*
X132002147Y-86973646D01*
X131755644Y-86999554D01*
X131697028Y-87011586D01*
X131638284Y-87022792D01*
X131629462Y-87025456D01*
X131392686Y-87098751D01*
X131337555Y-87121926D01*
X131282080Y-87144339D01*
X131273944Y-87148666D01*
X131055914Y-87266554D01*
X131006346Y-87299988D01*
X130956265Y-87332760D01*
X130949124Y-87338584D01*
X130758144Y-87496577D01*
X130716005Y-87539012D01*
X130673255Y-87580875D01*
X130667381Y-87587976D01*
X130510727Y-87780054D01*
X130477655Y-87829831D01*
X130443826Y-87879237D01*
X130439444Y-87887343D01*
X130323081Y-88106191D01*
X130300298Y-88161468D01*
X130276721Y-88216475D01*
X130273997Y-88225278D01*
X130202357Y-88462559D01*
X130190736Y-88521246D01*
X130178300Y-88579752D01*
X130177337Y-88588917D01*
X130153150Y-88835595D01*
X130153150Y-88835608D01*
X130150001Y-88867581D01*
X130150000Y-92677721D01*
X130135278Y-92827869D01*
X130101047Y-92941246D01*
X130045446Y-93045817D01*
X129970594Y-93137595D01*
X129879335Y-93213091D01*
X129775160Y-93269419D01*
X129662024Y-93304440D01*
X129513979Y-93320000D01*
X119412279Y-93320000D01*
X119262131Y-93305278D01*
X119148754Y-93271047D01*
X119044183Y-93215446D01*
X118952405Y-93140594D01*
X118876909Y-93049335D01*
X118820581Y-92945160D01*
X118785560Y-92832024D01*
X118770000Y-92683979D01*
X118770000Y-85714990D01*
X119006443Y-85714990D01*
X119010000Y-85751105D01*
X119009999Y-87493894D01*
X119006443Y-87529999D01*
X119020634Y-87674084D01*
X119026808Y-87694437D01*
X119062662Y-87812631D01*
X119130912Y-87940318D01*
X119222761Y-88052236D01*
X119250807Y-88075253D01*
X119299741Y-88124187D01*
X119322762Y-88152238D01*
X119434680Y-88244087D01*
X119463755Y-88259628D01*
X119466627Y-88265000D01*
X119455498Y-88285820D01*
X119419188Y-88405518D01*
X119406928Y-88530000D01*
X119406928Y-89270000D01*
X119419188Y-89394482D01*
X119455498Y-89514180D01*
X119466627Y-89535000D01*
X119455498Y-89555820D01*
X119419188Y-89675518D01*
X119406928Y-89800000D01*
X119406928Y-90540000D01*
X119419188Y-90664482D01*
X119455498Y-90784180D01*
X119466627Y-90805000D01*
X119455498Y-90825820D01*
X119419188Y-90945518D01*
X119406928Y-91070000D01*
X119406928Y-91810000D01*
X119419188Y-91934482D01*
X119455498Y-92054180D01*
X119514463Y-92164494D01*
X119593815Y-92261185D01*
X119690506Y-92340537D01*
X119800820Y-92399502D01*
X119920518Y-92435812D01*
X120045000Y-92448072D01*
X122445000Y-92448072D01*
X122569482Y-92435812D01*
X122689180Y-92399502D01*
X122799494Y-92340537D01*
X122896185Y-92261185D01*
X122975537Y-92164494D01*
X123026245Y-92069628D01*
X123055320Y-92054087D01*
X123167238Y-91962238D01*
X123190258Y-91934188D01*
X123307602Y-91816844D01*
X123319188Y-91934482D01*
X123355498Y-92054180D01*
X123414463Y-92164494D01*
X123493815Y-92261185D01*
X123590506Y-92340537D01*
X123700820Y-92399502D01*
X123820518Y-92435812D01*
X123945000Y-92448072D01*
X126345000Y-92448072D01*
X126469482Y-92435812D01*
X126589180Y-92399502D01*
X126699494Y-92340537D01*
X126796185Y-92261185D01*
X126875537Y-92164494D01*
X126934502Y-92054180D01*
X126970812Y-91934482D01*
X126983072Y-91810000D01*
X126983072Y-91070000D01*
X126970812Y-90945518D01*
X126934502Y-90825820D01*
X126923373Y-90805000D01*
X126934502Y-90784180D01*
X126970812Y-90664482D01*
X126983072Y-90540000D01*
X126983072Y-89800000D01*
X126970812Y-89675518D01*
X126958521Y-89635000D01*
X126963895Y-89635000D01*
X127000000Y-89638556D01*
X127036105Y-89635000D01*
X127144085Y-89624365D01*
X127282633Y-89582337D01*
X127410320Y-89514087D01*
X127522238Y-89422238D01*
X127545259Y-89394187D01*
X131114447Y-85825000D01*
X137337713Y-85825000D01*
X137340498Y-85834180D01*
X137399463Y-85944494D01*
X137478815Y-86041185D01*
X137575506Y-86120537D01*
X137685820Y-86179502D01*
X137805518Y-86215812D01*
X137930000Y-86228072D01*
X138930000Y-86228072D01*
X139054482Y-86215812D01*
X139174180Y-86179502D01*
X139284494Y-86120537D01*
X139381185Y-86041185D01*
X139460537Y-85944494D01*
X139519502Y-85834180D01*
X139522287Y-85825000D01*
X143473895Y-85825000D01*
X143510000Y-85828556D01*
X143546105Y-85825000D01*
X143654085Y-85814365D01*
X143792633Y-85772337D01*
X143920320Y-85704087D01*
X144032238Y-85612238D01*
X144055258Y-85584188D01*
X145084447Y-84555000D01*
X146145387Y-84555000D01*
X146244201Y-84702886D01*
X146437114Y-84895799D01*
X146663957Y-85047371D01*
X146916011Y-85151775D01*
X147183589Y-85205000D01*
X147456411Y-85205000D01*
X147723989Y-85151775D01*
X147976043Y-85047371D01*
X148202886Y-84895799D01*
X148321692Y-84776993D01*
X149082612Y-84776993D01*
X149148137Y-85015860D01*
X149395116Y-85131760D01*
X149659960Y-85197250D01*
X149932492Y-85209812D01*
X150202238Y-85168965D01*
X150458832Y-85076277D01*
X150571863Y-85015860D01*
X150637388Y-84776993D01*
X149860000Y-83999605D01*
X149082612Y-84776993D01*
X148321692Y-84776993D01*
X148395799Y-84702886D01*
X148547371Y-84476043D01*
X148588511Y-84376721D01*
X148603723Y-84418832D01*
X148664140Y-84531863D01*
X148903007Y-84597388D01*
X149680395Y-83820000D01*
X150039605Y-83820000D01*
X150816993Y-84597388D01*
X151055860Y-84531863D01*
X151171760Y-84284884D01*
X151237250Y-84020040D01*
X151249812Y-83747508D01*
X151208965Y-83477762D01*
X151116277Y-83221168D01*
X151055860Y-83108137D01*
X150816993Y-83042612D01*
X150039605Y-83820000D01*
X149680395Y-83820000D01*
X148903007Y-83042612D01*
X148664140Y-83108137D01*
X148589836Y-83266477D01*
X148547371Y-83163957D01*
X148395799Y-82937114D01*
X148202886Y-82744201D01*
X147976043Y-82592629D01*
X147873127Y-82550000D01*
X147976043Y-82507371D01*
X148202886Y-82355799D01*
X148395799Y-82162886D01*
X148547371Y-81936043D01*
X148590000Y-81833127D01*
X148632629Y-81936043D01*
X148784201Y-82162886D01*
X148977114Y-82355799D01*
X149203957Y-82507371D01*
X149303279Y-82548511D01*
X149261168Y-82563723D01*
X149148137Y-82624140D01*
X149082612Y-82863007D01*
X149860000Y-83640395D01*
X150637388Y-82863007D01*
X150571863Y-82624140D01*
X150413523Y-82549836D01*
X150516043Y-82507371D01*
X150742886Y-82355799D01*
X150935799Y-82162886D01*
X151087371Y-81936043D01*
X151191775Y-81683989D01*
X151245000Y-81416411D01*
X151245000Y-81143589D01*
X151191775Y-80876011D01*
X151087371Y-80623957D01*
X150935799Y-80397114D01*
X150742886Y-80204201D01*
X150516043Y-80052629D01*
X150413127Y-80010000D01*
X150516043Y-79967371D01*
X150742886Y-79815799D01*
X150935799Y-79622886D01*
X151087371Y-79396043D01*
X151191775Y-79143989D01*
X151245000Y-78876411D01*
X151245000Y-78603589D01*
X151191775Y-78336011D01*
X151087371Y-78083957D01*
X150935799Y-77857114D01*
X150742886Y-77664201D01*
X150516043Y-77512629D01*
X150263989Y-77408225D01*
X149996411Y-77355000D01*
X149723589Y-77355000D01*
X149549146Y-77389699D01*
X149135258Y-76975812D01*
X149112238Y-76947762D01*
X149000320Y-76855913D01*
X148872633Y-76787663D01*
X148734085Y-76745635D01*
X148626105Y-76735000D01*
X148590000Y-76731444D01*
X148553895Y-76735000D01*
X144816094Y-76735000D01*
X144779999Y-76731445D01*
X144743904Y-76735000D01*
X144743895Y-76735000D01*
X144635915Y-76745635D01*
X144497367Y-76787663D01*
X144369680Y-76855913D01*
X144257762Y-76947762D01*
X144234746Y-76975807D01*
X143205554Y-78005000D01*
X136982287Y-78005000D01*
X136979502Y-77995820D01*
X136920537Y-77885506D01*
X136841185Y-77788815D01*
X136744494Y-77709463D01*
X136634180Y-77650498D01*
X136514482Y-77614188D01*
X136390000Y-77601928D01*
X135390000Y-77601928D01*
X135265518Y-77614188D01*
X135145820Y-77650498D01*
X135035506Y-77709463D01*
X134938815Y-77788815D01*
X134859463Y-77885506D01*
X134800498Y-77995820D01*
X134764188Y-78115518D01*
X134751928Y-78240000D01*
X134751928Y-78383625D01*
X126902556Y-86232998D01*
X126821252Y-86232998D01*
X126980000Y-86074250D01*
X126983072Y-85990000D01*
X126970812Y-85865518D01*
X126934502Y-85745820D01*
X126875537Y-85635506D01*
X126796185Y-85538815D01*
X126699494Y-85459463D01*
X126589180Y-85400498D01*
X126469482Y-85364188D01*
X126345000Y-85351928D01*
X125430750Y-85355000D01*
X125272000Y-85513750D01*
X125272000Y-86233000D01*
X125292000Y-86233000D01*
X125292000Y-86487000D01*
X125272000Y-86487000D01*
X125272000Y-86507000D01*
X125018000Y-86507000D01*
X125018000Y-86487000D01*
X124998000Y-86487000D01*
X124998000Y-86233000D01*
X125018000Y-86233000D01*
X125018000Y-85513750D01*
X124859250Y-85355000D01*
X124044999Y-85352264D01*
X124044999Y-78890868D01*
X124103109Y-78911481D01*
X124333000Y-78790814D01*
X124333000Y-77597000D01*
X124587000Y-77597000D01*
X124587000Y-78790814D01*
X124816891Y-78911481D01*
X125091252Y-78814157D01*
X125341355Y-78665178D01*
X125557588Y-78470269D01*
X125731641Y-78236920D01*
X125856825Y-77974099D01*
X125901476Y-77826890D01*
X125780155Y-77597000D01*
X124587000Y-77597000D01*
X124333000Y-77597000D01*
X124313000Y-77597000D01*
X124313000Y-77343000D01*
X124333000Y-77343000D01*
X124333000Y-77323000D01*
X124587000Y-77323000D01*
X124587000Y-77343000D01*
X125780155Y-77343000D01*
X125901476Y-77113110D01*
X125856825Y-76965901D01*
X125731641Y-76703080D01*
X125557588Y-76469731D01*
X125341355Y-76274822D01*
X125224466Y-76205195D01*
X125406632Y-76083475D01*
X125613475Y-75876632D01*
X125775990Y-75633411D01*
X125887932Y-75363158D01*
X125945000Y-75076260D01*
X125945000Y-74783740D01*
X125887932Y-74496842D01*
X125775990Y-74226589D01*
X125613475Y-73983368D01*
X125406632Y-73776525D01*
X125232240Y-73660000D01*
X125406632Y-73543475D01*
X125613475Y-73336632D01*
X125775990Y-73093411D01*
X125887932Y-72823158D01*
X125945000Y-72536260D01*
X125945000Y-72243740D01*
X125887932Y-71956842D01*
X125775990Y-71686589D01*
X125613475Y-71443368D01*
X125406632Y-71236525D01*
X125163411Y-71074010D01*
X124893158Y-70962068D01*
X124606260Y-70905000D01*
X124313740Y-70905000D01*
X124026842Y-70962068D01*
X123756589Y-71074010D01*
X123513368Y-71236525D01*
X123381513Y-71368380D01*
X123359502Y-71295820D01*
X123300537Y-71185506D01*
X123221185Y-71088815D01*
X123124494Y-71009463D01*
X123014180Y-70950498D01*
X122894482Y-70914188D01*
X122770000Y-70901928D01*
X121070000Y-70901928D01*
X120945518Y-70914188D01*
X120825820Y-70950498D01*
X120715506Y-71009463D01*
X120618815Y-71088815D01*
X120539463Y-71185506D01*
X120480498Y-71295820D01*
X120444188Y-71415518D01*
X120431928Y-71540000D01*
X120431928Y-73240000D01*
X120444188Y-73364482D01*
X120480498Y-73484180D01*
X120530614Y-73577938D01*
X119875797Y-74232755D01*
X119847752Y-74255771D01*
X119755903Y-74367689D01*
X119707674Y-74457920D01*
X119687653Y-74495376D01*
X119645624Y-74633924D01*
X119631433Y-74778009D01*
X119634990Y-74814124D01*
X119634989Y-84785553D01*
X119250807Y-85169736D01*
X119222762Y-85192752D01*
X119130913Y-85304670D01*
X119078693Y-85402367D01*
X119062663Y-85432357D01*
X119020634Y-85570905D01*
X119006443Y-85714990D01*
X118770000Y-85714990D01*
X118770000Y-69882279D01*
X118784722Y-69732131D01*
X118818953Y-69618754D01*
X118874555Y-69514181D01*
X118949407Y-69422404D01*
X119040664Y-69346909D01*
X119144844Y-69290581D01*
X119257976Y-69255560D01*
X119406022Y-69240000D01*
X129507721Y-69240000D01*
X129657869Y-69254722D01*
G37*
X129657869Y-69254722D02*
X129771246Y-69288953D01*
X129875819Y-69344555D01*
X129967596Y-69419407D01*
X130043091Y-69510664D01*
X130099419Y-69614844D01*
X130134440Y-69727976D01*
X130150001Y-69876031D01*
X130150000Y-73692418D01*
X130152802Y-73720864D01*
X130152747Y-73728682D01*
X130153646Y-73737853D01*
X130179554Y-73984357D01*
X130191589Y-74042986D01*
X130202792Y-74101716D01*
X130205456Y-74110538D01*
X130278751Y-74347314D01*
X130301931Y-74402457D01*
X130324339Y-74457920D01*
X130328665Y-74466054D01*
X130328667Y-74466059D01*
X130328670Y-74466064D01*
X130446553Y-74684086D01*
X130479988Y-74733654D01*
X130512759Y-74783735D01*
X130518584Y-74790876D01*
X130676577Y-74981856D01*
X130719012Y-75023995D01*
X130760875Y-75066745D01*
X130767976Y-75072618D01*
X130960053Y-75229273D01*
X131009875Y-75262374D01*
X131059237Y-75296173D01*
X131067343Y-75300556D01*
X131286191Y-75416919D01*
X131341479Y-75439707D01*
X131396475Y-75463279D01*
X131405278Y-75466003D01*
X131642559Y-75537643D01*
X131701246Y-75549264D01*
X131759752Y-75561700D01*
X131768915Y-75562663D01*
X131768917Y-75562663D01*
X132015595Y-75586850D01*
X132015598Y-75586850D01*
X132047581Y-75590000D01*
X154907721Y-75590000D01*
X155057869Y-75604722D01*
X155171246Y-75638953D01*
X155275819Y-75694555D01*
X155367596Y-75769407D01*
X155443091Y-75860664D01*
X155499419Y-75964844D01*
X155534440Y-76077976D01*
X155550001Y-76226031D01*
X155550000Y-86327721D01*
X155535278Y-86477869D01*
X155501047Y-86591246D01*
X155445446Y-86695817D01*
X155370594Y-86787595D01*
X155279335Y-86863091D01*
X155175160Y-86919419D01*
X155062024Y-86954440D01*
X154913979Y-86970000D01*
X132047581Y-86970000D01*
X132019135Y-86972802D01*
X132011318Y-86972747D01*
X132002147Y-86973646D01*
X131755644Y-86999554D01*
X131697028Y-87011586D01*
X131638284Y-87022792D01*
X131629462Y-87025456D01*
X131392686Y-87098751D01*
X131337555Y-87121926D01*
X131282080Y-87144339D01*
X131273944Y-87148666D01*
X131055914Y-87266554D01*
X131006346Y-87299988D01*
X130956265Y-87332760D01*
X130949124Y-87338584D01*
X130758144Y-87496577D01*
X130716005Y-87539012D01*
X130673255Y-87580875D01*
X130667381Y-87587976D01*
X130510727Y-87780054D01*
X130477655Y-87829831D01*
X130443826Y-87879237D01*
X130439444Y-87887343D01*
X130323081Y-88106191D01*
X130300298Y-88161468D01*
X130276721Y-88216475D01*
X130273997Y-88225278D01*
X130202357Y-88462559D01*
X130190736Y-88521246D01*
X130178300Y-88579752D01*
X130177337Y-88588917D01*
X130153150Y-88835595D01*
X130153150Y-88835608D01*
X130150001Y-88867581D01*
X130150000Y-92677721D01*
X130135278Y-92827869D01*
X130101047Y-92941246D01*
X130045446Y-93045817D01*
X129970594Y-93137595D01*
X129879335Y-93213091D01*
X129775160Y-93269419D01*
X129662024Y-93304440D01*
X129513979Y-93320000D01*
X119412279Y-93320000D01*
X119262131Y-93305278D01*
X119148754Y-93271047D01*
X119044183Y-93215446D01*
X118952405Y-93140594D01*
X118876909Y-93049335D01*
X118820581Y-92945160D01*
X118785560Y-92832024D01*
X118770000Y-92683979D01*
X118770000Y-85714990D01*
X119006443Y-85714990D01*
X119010000Y-85751105D01*
X119009999Y-87493894D01*
X119006443Y-87529999D01*
X119020634Y-87674084D01*
X119026808Y-87694437D01*
X119062662Y-87812631D01*
X119130912Y-87940318D01*
X119222761Y-88052236D01*
X119250807Y-88075253D01*
X119299741Y-88124187D01*
X119322762Y-88152238D01*
X119434680Y-88244087D01*
X119463755Y-88259628D01*
X119466627Y-88265000D01*
X119455498Y-88285820D01*
X119419188Y-88405518D01*
X119406928Y-88530000D01*
X119406928Y-89270000D01*
X119419188Y-89394482D01*
X119455498Y-89514180D01*
X119466627Y-89535000D01*
X119455498Y-89555820D01*
X119419188Y-89675518D01*
X119406928Y-89800000D01*
X119406928Y-90540000D01*
X119419188Y-90664482D01*
X119455498Y-90784180D01*
X119466627Y-90805000D01*
X119455498Y-90825820D01*
X119419188Y-90945518D01*
X119406928Y-91070000D01*
X119406928Y-91810000D01*
X119419188Y-91934482D01*
X119455498Y-92054180D01*
X119514463Y-92164494D01*
X119593815Y-92261185D01*
X119690506Y-92340537D01*
X119800820Y-92399502D01*
X119920518Y-92435812D01*
X120045000Y-92448072D01*
X122445000Y-92448072D01*
X122569482Y-92435812D01*
X122689180Y-92399502D01*
X122799494Y-92340537D01*
X122896185Y-92261185D01*
X122975537Y-92164494D01*
X123026245Y-92069628D01*
X123055320Y-92054087D01*
X123167238Y-91962238D01*
X123190258Y-91934188D01*
X123307602Y-91816844D01*
X123319188Y-91934482D01*
X123355498Y-92054180D01*
X123414463Y-92164494D01*
X123493815Y-92261185D01*
X123590506Y-92340537D01*
X123700820Y-92399502D01*
X123820518Y-92435812D01*
X123945000Y-92448072D01*
X126345000Y-92448072D01*
X126469482Y-92435812D01*
X126589180Y-92399502D01*
X126699494Y-92340537D01*
X126796185Y-92261185D01*
X126875537Y-92164494D01*
X126934502Y-92054180D01*
X126970812Y-91934482D01*
X126983072Y-91810000D01*
X126983072Y-91070000D01*
X126970812Y-90945518D01*
X126934502Y-90825820D01*
X126923373Y-90805000D01*
X126934502Y-90784180D01*
X126970812Y-90664482D01*
X126983072Y-90540000D01*
X126983072Y-89800000D01*
X126970812Y-89675518D01*
X126958521Y-89635000D01*
X126963895Y-89635000D01*
X127000000Y-89638556D01*
X127036105Y-89635000D01*
X127144085Y-89624365D01*
X127282633Y-89582337D01*
X127410320Y-89514087D01*
X127522238Y-89422238D01*
X127545259Y-89394187D01*
X131114447Y-85825000D01*
X137337713Y-85825000D01*
X137340498Y-85834180D01*
X137399463Y-85944494D01*
X137478815Y-86041185D01*
X137575506Y-86120537D01*
X137685820Y-86179502D01*
X137805518Y-86215812D01*
X137930000Y-86228072D01*
X138930000Y-86228072D01*
X139054482Y-86215812D01*
X139174180Y-86179502D01*
X139284494Y-86120537D01*
X139381185Y-86041185D01*
X139460537Y-85944494D01*
X139519502Y-85834180D01*
X139522287Y-85825000D01*
X143473895Y-85825000D01*
X143510000Y-85828556D01*
X143546105Y-85825000D01*
X143654085Y-85814365D01*
X143792633Y-85772337D01*
X143920320Y-85704087D01*
X144032238Y-85612238D01*
X144055258Y-85584188D01*
X145084447Y-84555000D01*
X146145387Y-84555000D01*
X146244201Y-84702886D01*
X146437114Y-84895799D01*
X146663957Y-85047371D01*
X146916011Y-85151775D01*
X147183589Y-85205000D01*
X147456411Y-85205000D01*
X147723989Y-85151775D01*
X147976043Y-85047371D01*
X148202886Y-84895799D01*
X148321692Y-84776993D01*
X149082612Y-84776993D01*
X149148137Y-85015860D01*
X149395116Y-85131760D01*
X149659960Y-85197250D01*
X149932492Y-85209812D01*
X150202238Y-85168965D01*
X150458832Y-85076277D01*
X150571863Y-85015860D01*
X150637388Y-84776993D01*
X149860000Y-83999605D01*
X149082612Y-84776993D01*
X148321692Y-84776993D01*
X148395799Y-84702886D01*
X148547371Y-84476043D01*
X148588511Y-84376721D01*
X148603723Y-84418832D01*
X148664140Y-84531863D01*
X148903007Y-84597388D01*
X149680395Y-83820000D01*
X150039605Y-83820000D01*
X150816993Y-84597388D01*
X151055860Y-84531863D01*
X151171760Y-84284884D01*
X151237250Y-84020040D01*
X151249812Y-83747508D01*
X151208965Y-83477762D01*
X151116277Y-83221168D01*
X151055860Y-83108137D01*
X150816993Y-83042612D01*
X150039605Y-83820000D01*
X149680395Y-83820000D01*
X148903007Y-83042612D01*
X148664140Y-83108137D01*
X148589836Y-83266477D01*
X148547371Y-83163957D01*
X148395799Y-82937114D01*
X148202886Y-82744201D01*
X147976043Y-82592629D01*
X147873127Y-82550000D01*
X147976043Y-82507371D01*
X148202886Y-82355799D01*
X148395799Y-82162886D01*
X148547371Y-81936043D01*
X148590000Y-81833127D01*
X148632629Y-81936043D01*
X148784201Y-82162886D01*
X148977114Y-82355799D01*
X149203957Y-82507371D01*
X149303279Y-82548511D01*
X149261168Y-82563723D01*
X149148137Y-82624140D01*
X149082612Y-82863007D01*
X149860000Y-83640395D01*
X150637388Y-82863007D01*
X150571863Y-82624140D01*
X150413523Y-82549836D01*
X150516043Y-82507371D01*
X150742886Y-82355799D01*
X150935799Y-82162886D01*
X151087371Y-81936043D01*
X151191775Y-81683989D01*
X151245000Y-81416411D01*
X151245000Y-81143589D01*
X151191775Y-80876011D01*
X151087371Y-80623957D01*
X150935799Y-80397114D01*
X150742886Y-80204201D01*
X150516043Y-80052629D01*
X150413127Y-80010000D01*
X150516043Y-79967371D01*
X150742886Y-79815799D01*
X150935799Y-79622886D01*
X151087371Y-79396043D01*
X151191775Y-79143989D01*
X151245000Y-78876411D01*
X151245000Y-78603589D01*
X151191775Y-78336011D01*
X151087371Y-78083957D01*
X150935799Y-77857114D01*
X150742886Y-77664201D01*
X150516043Y-77512629D01*
X150263989Y-77408225D01*
X149996411Y-77355000D01*
X149723589Y-77355000D01*
X149549146Y-77389699D01*
X149135258Y-76975812D01*
X149112238Y-76947762D01*
X149000320Y-76855913D01*
X148872633Y-76787663D01*
X148734085Y-76745635D01*
X148626105Y-76735000D01*
X148590000Y-76731444D01*
X148553895Y-76735000D01*
X144816094Y-76735000D01*
X144779999Y-76731445D01*
X144743904Y-76735000D01*
X144743895Y-76735000D01*
X144635915Y-76745635D01*
X144497367Y-76787663D01*
X144369680Y-76855913D01*
X144257762Y-76947762D01*
X144234746Y-76975807D01*
X143205554Y-78005000D01*
X136982287Y-78005000D01*
X136979502Y-77995820D01*
X136920537Y-77885506D01*
X136841185Y-77788815D01*
X136744494Y-77709463D01*
X136634180Y-77650498D01*
X136514482Y-77614188D01*
X136390000Y-77601928D01*
X135390000Y-77601928D01*
X135265518Y-77614188D01*
X135145820Y-77650498D01*
X135035506Y-77709463D01*
X134938815Y-77788815D01*
X134859463Y-77885506D01*
X134800498Y-77995820D01*
X134764188Y-78115518D01*
X134751928Y-78240000D01*
X134751928Y-78383625D01*
X126902556Y-86232998D01*
X126821252Y-86232998D01*
X126980000Y-86074250D01*
X126983072Y-85990000D01*
X126970812Y-85865518D01*
X126934502Y-85745820D01*
X126875537Y-85635506D01*
X126796185Y-85538815D01*
X126699494Y-85459463D01*
X126589180Y-85400498D01*
X126469482Y-85364188D01*
X126345000Y-85351928D01*
X125430750Y-85355000D01*
X125272000Y-85513750D01*
X125272000Y-86233000D01*
X125292000Y-86233000D01*
X125292000Y-86487000D01*
X125272000Y-86487000D01*
X125272000Y-86507000D01*
X125018000Y-86507000D01*
X125018000Y-86487000D01*
X124998000Y-86487000D01*
X124998000Y-86233000D01*
X125018000Y-86233000D01*
X125018000Y-85513750D01*
X124859250Y-85355000D01*
X124044999Y-85352264D01*
X124044999Y-78890868D01*
X124103109Y-78911481D01*
X124333000Y-78790814D01*
X124333000Y-77597000D01*
X124587000Y-77597000D01*
X124587000Y-78790814D01*
X124816891Y-78911481D01*
X125091252Y-78814157D01*
X125341355Y-78665178D01*
X125557588Y-78470269D01*
X125731641Y-78236920D01*
X125856825Y-77974099D01*
X125901476Y-77826890D01*
X125780155Y-77597000D01*
X124587000Y-77597000D01*
X124333000Y-77597000D01*
X124313000Y-77597000D01*
X124313000Y-77343000D01*
X124333000Y-77343000D01*
X124333000Y-77323000D01*
X124587000Y-77323000D01*
X124587000Y-77343000D01*
X125780155Y-77343000D01*
X125901476Y-77113110D01*
X125856825Y-76965901D01*
X125731641Y-76703080D01*
X125557588Y-76469731D01*
X125341355Y-76274822D01*
X125224466Y-76205195D01*
X125406632Y-76083475D01*
X125613475Y-75876632D01*
X125775990Y-75633411D01*
X125887932Y-75363158D01*
X125945000Y-75076260D01*
X125945000Y-74783740D01*
X125887932Y-74496842D01*
X125775990Y-74226589D01*
X125613475Y-73983368D01*
X125406632Y-73776525D01*
X125232240Y-73660000D01*
X125406632Y-73543475D01*
X125613475Y-73336632D01*
X125775990Y-73093411D01*
X125887932Y-72823158D01*
X125945000Y-72536260D01*
X125945000Y-72243740D01*
X125887932Y-71956842D01*
X125775990Y-71686589D01*
X125613475Y-71443368D01*
X125406632Y-71236525D01*
X125163411Y-71074010D01*
X124893158Y-70962068D01*
X124606260Y-70905000D01*
X124313740Y-70905000D01*
X124026842Y-70962068D01*
X123756589Y-71074010D01*
X123513368Y-71236525D01*
X123381513Y-71368380D01*
X123359502Y-71295820D01*
X123300537Y-71185506D01*
X123221185Y-71088815D01*
X123124494Y-71009463D01*
X123014180Y-70950498D01*
X122894482Y-70914188D01*
X122770000Y-70901928D01*
X121070000Y-70901928D01*
X120945518Y-70914188D01*
X120825820Y-70950498D01*
X120715506Y-71009463D01*
X120618815Y-71088815D01*
X120539463Y-71185506D01*
X120480498Y-71295820D01*
X120444188Y-71415518D01*
X120431928Y-71540000D01*
X120431928Y-73240000D01*
X120444188Y-73364482D01*
X120480498Y-73484180D01*
X120530614Y-73577938D01*
X119875797Y-74232755D01*
X119847752Y-74255771D01*
X119755903Y-74367689D01*
X119707674Y-74457920D01*
X119687653Y-74495376D01*
X119645624Y-74633924D01*
X119631433Y-74778009D01*
X119634990Y-74814124D01*
X119634989Y-84785553D01*
X119250807Y-85169736D01*
X119222762Y-85192752D01*
X119130913Y-85304670D01*
X119078693Y-85402367D01*
X119062663Y-85432357D01*
X119020634Y-85570905D01*
X119006443Y-85714990D01*
X118770000Y-85714990D01*
X118770000Y-69882279D01*
X118784722Y-69732131D01*
X118818953Y-69618754D01*
X118874555Y-69514181D01*
X118949407Y-69422404D01*
X119040664Y-69346909D01*
X119144844Y-69290581D01*
X119257976Y-69255560D01*
X119406022Y-69240000D01*
X129507721Y-69240000D01*
X129657869Y-69254722D01*
G36*
X122574999Y-85365862D02*
G01*
X122569482Y-85364188D01*
X122445000Y-85351928D01*
X121900377Y-85351928D01*
X121859087Y-85274680D01*
X121767238Y-85162762D01*
X121739187Y-85139741D01*
X121504999Y-84905553D01*
X121504999Y-78901544D01*
X121773740Y-78955000D01*
X122066260Y-78955000D01*
X122353158Y-78897932D01*
X122575000Y-78806042D01*
X122574999Y-85365862D01*
G37*
X122574999Y-85365862D02*
X122569482Y-85364188D01*
X122445000Y-85351928D01*
X121900377Y-85351928D01*
X121859087Y-85274680D01*
X121767238Y-85162762D01*
X121739187Y-85139741D01*
X121504999Y-84905553D01*
X121504999Y-78901544D01*
X121773740Y-78955000D01*
X122066260Y-78955000D01*
X122353158Y-78897932D01*
X122575000Y-78806042D01*
X122574999Y-85365862D01*
G36*
X137291928Y-79510000D02*
G01*
X137291928Y-80510000D01*
X137295375Y-80545000D01*
X136982287Y-80545000D01*
X136979502Y-80535820D01*
X136920537Y-80425506D01*
X136841185Y-80328815D01*
X136744494Y-80249463D01*
X136634180Y-80190498D01*
X136514482Y-80154188D01*
X136390000Y-80141928D01*
X135390000Y-80141928D01*
X135265518Y-80154188D01*
X135145820Y-80190498D01*
X135035506Y-80249463D01*
X134938815Y-80328815D01*
X134859463Y-80425506D01*
X134800498Y-80535820D01*
X134764188Y-80655518D01*
X134751928Y-80780000D01*
X134751928Y-81780000D01*
X134764188Y-81904482D01*
X134800498Y-82024180D01*
X134859463Y-82134494D01*
X134938815Y-82231185D01*
X135035506Y-82310537D01*
X135145820Y-82369502D01*
X135265518Y-82405812D01*
X135390000Y-82418072D01*
X136390000Y-82418072D01*
X136514482Y-82405812D01*
X136634180Y-82369502D01*
X136744494Y-82310537D01*
X136841185Y-82231185D01*
X136920537Y-82134494D01*
X136979502Y-82024180D01*
X136982287Y-82015000D01*
X137295375Y-82015000D01*
X137291928Y-82050000D01*
X137291928Y-83050000D01*
X137304188Y-83174482D01*
X137340498Y-83294180D01*
X137399463Y-83404494D01*
X137478815Y-83501185D01*
X137575506Y-83580537D01*
X137685820Y-83639502D01*
X137805518Y-83675812D01*
X137930000Y-83688072D01*
X138930000Y-83688072D01*
X139054482Y-83675812D01*
X139174180Y-83639502D01*
X139284494Y-83580537D01*
X139381185Y-83501185D01*
X139460537Y-83404494D01*
X139519502Y-83294180D01*
X139522287Y-83285000D01*
X143473895Y-83285000D01*
X143510000Y-83288556D01*
X143546105Y-83285000D01*
X143654085Y-83274365D01*
X143792633Y-83232337D01*
X143920320Y-83164087D01*
X144032238Y-83072238D01*
X144055258Y-83044188D01*
X145084447Y-82015000D01*
X146145387Y-82015000D01*
X146244201Y-82162886D01*
X146437114Y-82355799D01*
X146663957Y-82507371D01*
X146766873Y-82550000D01*
X146663957Y-82592629D01*
X146437114Y-82744201D01*
X146244201Y-82937114D01*
X146145387Y-83085000D01*
X144816094Y-83085000D01*
X144779999Y-83081445D01*
X144743904Y-83085000D01*
X144743895Y-83085000D01*
X144635915Y-83095635D01*
X144497367Y-83137663D01*
X144369680Y-83205913D01*
X144257762Y-83297762D01*
X144234746Y-83325807D01*
X143205554Y-84355000D01*
X139522287Y-84355000D01*
X139519502Y-84345820D01*
X139460537Y-84235506D01*
X139381185Y-84138815D01*
X139284494Y-84059463D01*
X139174180Y-84000498D01*
X139054482Y-83964188D01*
X138930000Y-83951928D01*
X137930000Y-83951928D01*
X137805518Y-83964188D01*
X137685820Y-84000498D01*
X137575506Y-84059463D01*
X137478815Y-84138815D01*
X137399463Y-84235506D01*
X137340498Y-84345820D01*
X137337713Y-84355000D01*
X137024625Y-84355000D01*
X137028072Y-84320000D01*
X137025000Y-84105750D01*
X136866250Y-83947000D01*
X136017000Y-83947000D01*
X136017000Y-83967000D01*
X135763000Y-83967000D01*
X135763000Y-83947000D01*
X134913750Y-83947000D01*
X134755000Y-84105750D01*
X134751928Y-84320000D01*
X134755375Y-84355000D01*
X130859446Y-84355000D01*
X131894446Y-83320000D01*
X134751928Y-83320000D01*
X134755000Y-83534250D01*
X134913750Y-83693000D01*
X135763000Y-83693000D01*
X135763000Y-82843750D01*
X136017000Y-82843750D01*
X136017000Y-83693000D01*
X136866250Y-83693000D01*
X137025000Y-83534250D01*
X137028072Y-83320000D01*
X137015812Y-83195518D01*
X136979502Y-83075820D01*
X136920537Y-82965506D01*
X136841185Y-82868815D01*
X136744494Y-82789463D01*
X136634180Y-82730498D01*
X136514482Y-82694188D01*
X136390000Y-82681928D01*
X136175750Y-82685000D01*
X136017000Y-82843750D01*
X135763000Y-82843750D01*
X135604250Y-82685000D01*
X135390000Y-82681928D01*
X135265518Y-82694188D01*
X135145820Y-82730498D01*
X135035506Y-82789463D01*
X134938815Y-82868815D01*
X134859463Y-82965506D01*
X134800498Y-83075820D01*
X134764188Y-83195518D01*
X134751928Y-83320000D01*
X131894446Y-83320000D01*
X135341183Y-79873264D01*
X135390000Y-79878072D01*
X136390000Y-79878072D01*
X136514482Y-79865812D01*
X136634180Y-79829502D01*
X136744494Y-79770537D01*
X136841185Y-79691185D01*
X136920537Y-79594494D01*
X136979502Y-79484180D01*
X136982287Y-79475000D01*
X137295375Y-79475000D01*
X137291928Y-79510000D01*
G37*
X137291928Y-79510000D02*
X137291928Y-80510000D01*
X137295375Y-80545000D01*
X136982287Y-80545000D01*
X136979502Y-80535820D01*
X136920537Y-80425506D01*
X136841185Y-80328815D01*
X136744494Y-80249463D01*
X136634180Y-80190498D01*
X136514482Y-80154188D01*
X136390000Y-80141928D01*
X135390000Y-80141928D01*
X135265518Y-80154188D01*
X135145820Y-80190498D01*
X135035506Y-80249463D01*
X134938815Y-80328815D01*
X134859463Y-80425506D01*
X134800498Y-80535820D01*
X134764188Y-80655518D01*
X134751928Y-80780000D01*
X134751928Y-81780000D01*
X134764188Y-81904482D01*
X134800498Y-82024180D01*
X134859463Y-82134494D01*
X134938815Y-82231185D01*
X135035506Y-82310537D01*
X135145820Y-82369502D01*
X135265518Y-82405812D01*
X135390000Y-82418072D01*
X136390000Y-82418072D01*
X136514482Y-82405812D01*
X136634180Y-82369502D01*
X136744494Y-82310537D01*
X136841185Y-82231185D01*
X136920537Y-82134494D01*
X136979502Y-82024180D01*
X136982287Y-82015000D01*
X137295375Y-82015000D01*
X137291928Y-82050000D01*
X137291928Y-83050000D01*
X137304188Y-83174482D01*
X137340498Y-83294180D01*
X137399463Y-83404494D01*
X137478815Y-83501185D01*
X137575506Y-83580537D01*
X137685820Y-83639502D01*
X137805518Y-83675812D01*
X137930000Y-83688072D01*
X138930000Y-83688072D01*
X139054482Y-83675812D01*
X139174180Y-83639502D01*
X139284494Y-83580537D01*
X139381185Y-83501185D01*
X139460537Y-83404494D01*
X139519502Y-83294180D01*
X139522287Y-83285000D01*
X143473895Y-83285000D01*
X143510000Y-83288556D01*
X143546105Y-83285000D01*
X143654085Y-83274365D01*
X143792633Y-83232337D01*
X143920320Y-83164087D01*
X144032238Y-83072238D01*
X144055258Y-83044188D01*
X145084447Y-82015000D01*
X146145387Y-82015000D01*
X146244201Y-82162886D01*
X146437114Y-82355799D01*
X146663957Y-82507371D01*
X146766873Y-82550000D01*
X146663957Y-82592629D01*
X146437114Y-82744201D01*
X146244201Y-82937114D01*
X146145387Y-83085000D01*
X144816094Y-83085000D01*
X144779999Y-83081445D01*
X144743904Y-83085000D01*
X144743895Y-83085000D01*
X144635915Y-83095635D01*
X144497367Y-83137663D01*
X144369680Y-83205913D01*
X144257762Y-83297762D01*
X144234746Y-83325807D01*
X143205554Y-84355000D01*
X139522287Y-84355000D01*
X139519502Y-84345820D01*
X139460537Y-84235506D01*
X139381185Y-84138815D01*
X139284494Y-84059463D01*
X139174180Y-84000498D01*
X139054482Y-83964188D01*
X138930000Y-83951928D01*
X137930000Y-83951928D01*
X137805518Y-83964188D01*
X137685820Y-84000498D01*
X137575506Y-84059463D01*
X137478815Y-84138815D01*
X137399463Y-84235506D01*
X137340498Y-84345820D01*
X137337713Y-84355000D01*
X137024625Y-84355000D01*
X137028072Y-84320000D01*
X137025000Y-84105750D01*
X136866250Y-83947000D01*
X136017000Y-83947000D01*
X136017000Y-83967000D01*
X135763000Y-83967000D01*
X135763000Y-83947000D01*
X134913750Y-83947000D01*
X134755000Y-84105750D01*
X134751928Y-84320000D01*
X134755375Y-84355000D01*
X130859446Y-84355000D01*
X131894446Y-83320000D01*
X134751928Y-83320000D01*
X134755000Y-83534250D01*
X134913750Y-83693000D01*
X135763000Y-83693000D01*
X135763000Y-82843750D01*
X136017000Y-82843750D01*
X136017000Y-83693000D01*
X136866250Y-83693000D01*
X137025000Y-83534250D01*
X137028072Y-83320000D01*
X137015812Y-83195518D01*
X136979502Y-83075820D01*
X136920537Y-82965506D01*
X136841185Y-82868815D01*
X136744494Y-82789463D01*
X136634180Y-82730498D01*
X136514482Y-82694188D01*
X136390000Y-82681928D01*
X136175750Y-82685000D01*
X136017000Y-82843750D01*
X135763000Y-82843750D01*
X135604250Y-82685000D01*
X135390000Y-82681928D01*
X135265518Y-82694188D01*
X135145820Y-82730498D01*
X135035506Y-82789463D01*
X134938815Y-82868815D01*
X134859463Y-82965506D01*
X134800498Y-83075820D01*
X134764188Y-83195518D01*
X134751928Y-83320000D01*
X131894446Y-83320000D01*
X135341183Y-79873264D01*
X135390000Y-79878072D01*
X136390000Y-79878072D01*
X136514482Y-79865812D01*
X136634180Y-79829502D01*
X136744494Y-79770537D01*
X136841185Y-79691185D01*
X136920537Y-79594494D01*
X136979502Y-79484180D01*
X136982287Y-79475000D01*
X137295375Y-79475000D01*
X137291928Y-79510000D01*
%TD*%
M02*
