M48
; DRILL file {KiCad 5.1.6-c6e7f7d~87~ubuntu18.04.1} date Fri Oct  2 11:27:18 2020
; FORMAT={-:-/ absolute / inch / decimal}
; #@! TF.CreationDate,2020-10-02T11:27:18-04:00
; #@! TF.GenerationSoftware,Kicad,Pcbnew,5.1.6-c6e7f7d~87~ubuntu18.04.1
; #@! TF.FileFunction,Plated,1,2,PTH
FMAT,2
INCH
T1C0.0157
T2C0.0197
T3C0.0276
T4C0.0394
%
G90
G05
T1
X4.7Y-2.9
X4.7Y-3.0
X4.7Y-3.15
X4.7Y-3.3
X4.7Y-3.5
X4.8Y-2.75
X4.8Y-3.15
X4.8Y-3.65
X4.95Y-2.75
X4.95Y-3.3
X4.95Y-3.65
X5.075Y-3.3
X5.1Y-2.75
X5.1Y-2.9
X5.1Y-3.5
X5.1Y-3.65
X5.2Y-3.0
X5.2Y-3.4
X5.35Y-3.0
X5.35Y-3.4
X5.5Y-3.0
X5.5Y-3.4
X5.65Y-3.0
X5.65Y-3.4
X5.8Y-3.0
X5.8Y-3.4
X5.95Y-3.0
X5.95Y-3.4
X6.1Y-3.0
X6.1Y-3.1
X6.1Y-3.2
X6.1Y-3.3
X6.1Y-3.4
T2
X5.35Y-3.2
X5.35Y-3.3
X5.45Y-3.15
X5.45Y-3.35
X5.35Y-3.1
X5.45Y-3.25
T3
X5.9Y-3.3
X5.8Y-3.1
X5.8Y-3.2
X5.8Y-3.3
X5.9Y-3.2
X5.9Y-3.1
T4
X4.8Y-2.85
X4.8Y-2.95
X4.8Y-3.05
X4.9Y-2.85
X4.9Y-2.95
X4.9Y-3.05
T0
M30
